<svg width="122" height="110" viewBox="0 0 122 110" fill="none" xmlns="http://www.w3.org/2000/svg">
<path d="M121.087 31.2967C119.428 26.4482 114.198 23.8968 109.35 25.5556L63.802 40.9928C63.802 37.9306 63.5466 33.7201 62.5258 29.3824C61.8877 26.5756 60.7396 23.5131 59.0808 20.4518C56.6564 15.9859 51.6809 13.4344 46.5778 14.3279C42.4946 14.9661 39.6887 18.6656 40.1985 22.7487L41.2193 32.0622C41.7293 36.9106 40.8366 41.8864 38.5396 46.224L31.6505 59.3652C31.0124 60.6414 29.8644 61.6613 28.4609 62.0449L23.9959 63.7029C23.1024 62.1722 21.189 61.4068 19.2755 61.9168L3.07209 67.4033C1.03053 68.1687 -0.11752 70.3375 0.647757 72.3791L12.3855 107.337C13.0236 109.379 15.3197 110.527 17.3613 109.762L33.6921 104.276C35.4782 103.638 36.6263 101.852 36.3718 99.9382L43.1338 97.6422L44.2818 98.663C50.0229 103.256 57.5501 104.787 64.4401 102.491C64.9501 102.363 65.5882 102.108 66.099 101.981C73.1164 99.5564 82.4298 95.8569 90.4676 91.0085C91.3611 91.0085 92.381 90.8813 93.2744 90.6258L102.588 87.4362C107.436 85.7774 109.988 80.5471 108.329 75.6985C107.691 73.7851 106.416 72.2535 104.884 71.1054C106.415 68.8094 106.925 65.8743 105.905 63.0674C105.267 61.154 104.119 59.7504 102.588 58.6015C104.247 56.3054 104.757 53.243 103.736 50.4361C103.353 49.2881 102.715 48.2673 101.95 47.3739L115.091 42.908C120.194 41.3754 122.745 36.1451 121.087 31.2967ZM23.2302 100.065C20.9341 100.83 18.5098 99.6819 17.8717 97.3848C17.1063 95.216 18.2543 92.6645 20.5514 92.0263C22.8474 91.2609 25.2718 92.409 25.9099 94.706C26.6753 96.8748 25.4 99.2991 23.2302 100.065ZM81.281 71.4857C80.6429 69.6996 81.6637 67.7862 83.4498 67.1481L96.2083 62.8104C97.9944 62.1723 99.9078 63.1931 100.546 64.9792C101.184 66.7654 100.163 68.6787 98.3771 69.3169L85.6187 73.6545C83.9607 74.2926 81.9192 73.2718 81.281 71.4857ZM79.623 62.3005C77.8369 62.9386 75.9236 61.9179 75.2854 60.1317C74.6473 58.3456 75.6681 56.4322 77.4542 55.7941L94.1675 50.1792C95.9537 49.5411 97.867 50.5619 98.5052 52.3481C99.1433 54.1342 98.1225 56.0475 96.3364 56.6857L79.623 62.3005ZM102.971 77.6104C103.609 79.3966 102.588 81.3099 100.802 81.9481L91.4887 85.1377C89.7026 85.7758 87.7892 84.755 87.1511 82.9688C86.5129 81.1827 87.5338 79.2694 89.3199 78.6312L98.6333 75.4416C100.419 74.8035 102.334 75.6961 102.971 77.6104ZM113.433 37.549L75.5408 50.3074C72.4786 51.3282 70.4379 53.7524 69.5443 56.6866C66.4821 68.9351 55.5096 69.8278 54.9997 69.9549C53.469 70.0822 52.1929 71.4856 52.32 73.0172C52.4473 74.5479 53.7235 75.824 55.3823 75.6969C56.6585 75.5696 58.3165 75.3142 60.1027 74.6761C64.0575 73.3999 68.5234 70.5929 71.8404 65.49C72.8612 66.5108 74.1365 67.4034 75.5399 67.7861C75.0299 69.5722 75.0299 71.4856 75.6672 73.2718C76.5607 76.0786 78.8568 78.1202 81.4082 79.0128C80.8983 80.799 80.7701 82.8406 81.4082 84.7539C81.9182 86.0301 82.5563 87.1782 83.577 88.1989C76.3043 92.1538 68.3943 95.088 62.5261 97.0024C57.4232 98.6613 51.9366 97.6405 47.7261 94.1956L45.3018 92.154C44.5364 91.5159 43.5156 91.3887 42.4949 91.6441L34.3295 94.4509L25.9106 69.0617L30.3765 67.5309C33.1833 66.6374 35.4794 64.5967 36.883 62.0453L43.7721 48.777C46.579 43.4184 47.727 37.2948 47.0891 31.2981L46.0683 21.9847C45.941 20.9639 46.5782 20.0713 47.599 19.9432C50.1505 19.5605 52.7019 20.8367 53.9782 23.1328C55.3817 25.8125 56.4026 28.3639 56.9125 30.66C58.4432 37.5491 57.9332 44.6947 57.9332 44.8219C57.806 45.8426 58.3159 46.7353 59.0813 47.2462C59.8467 47.8843 60.8674 48.0116 61.761 47.6289L111.264 30.7873C113.05 30.1492 114.963 31.17 115.601 32.9561C116.24 34.9959 115.22 36.9101 113.433 37.5482L113.433 37.549Z" fill="#3761F9"/>
<path d="M82.8118 13.9456C83.3218 14.0729 83.8326 13.9456 84.3426 13.8184C85.2361 13.4357 86.0014 12.6703 86.256 11.6495L87.7876 3.48415C88.043 1.95341 87.0222 0.421897 85.4915 0.0391443C83.9608 -0.216275 82.4293 0.804513 82.0465 2.3352L80.3877 10.5006C80.2595 12.0322 81.2801 13.5629 82.8118 13.9456Z" fill="#00CD98"/>
<path d="M66.991 15.476C67.7564 16.6241 69.1598 17.0068 70.308 16.6241C70.5634 16.4968 70.8179 16.3687 70.9461 16.2414C72.2223 15.3479 72.605 13.5617 71.7115 12.2865L67.1184 5.39744C66.2249 4.12123 64.4387 3.73857 63.1635 4.63207C61.8873 5.52559 61.5047 7.31179 62.3982 8.58695L66.991 15.476Z" fill="#00CD98"/>
<path d="M96.2086 21.7272C96.464 21.5999 96.7186 21.4718 96.8467 21.3445L103.736 16.7515C105.012 15.858 105.395 14.0718 104.501 12.7966C103.608 11.5204 101.821 11.1377 100.546 12.0312L93.6572 16.6243C92.381 17.5178 91.9983 19.304 92.8918 20.5792C93.6572 21.7272 94.9332 22.1099 96.2086 21.7272Z" fill="#00CD98"/>
</svg>
