<svg preserveAspectRatio="none" width="100%" height="100%" overflow="visible" style="display: block;" viewBox="0 0 43 43" fill="none" xmlns="http://www.w3.org/2000/svg">
<g id="tabler-icon-refresh">
<path id="Vector" d="M35.8333 19.7096C35.3952 16.5566 33.9325 13.6352 31.6706 11.3953C29.4088 9.15544 26.4732 7.72137 23.3162 7.31401C20.1591 6.90664 16.9557 7.54859 14.1993 9.14096C11.443 10.7333 9.28665 13.1878 8.0625 16.1262M7.16667 8.95956V16.1262H14.3333M7.16667 23.2917C7.60484 26.4446 9.0675 29.366 11.3294 31.6059C13.5912 33.8458 16.5268 35.2799 19.6838 35.6872C22.8409 36.0946 26.0443 35.4526 28.8007 33.8603C31.557 32.2679 33.7133 29.8134 34.9375 26.875M35.8333 34.0417V26.875H28.6667" stroke="var(--stroke-0, white)" stroke-width="2" stroke-linecap="round" stroke-linejoin="round"/>
</g>
</svg>
