<svg preserveAspectRatio="none" width="100%" height="100%" overflow="visible" style="display: block;" viewBox="0 0 43 43" fill="none" xmlns="http://www.w3.org/2000/svg">
<g id="tabler-icon-sparkles">
<path id="Vector" d="M28.6667 32.25C29.617 32.25 30.5285 32.6275 31.2005 33.2995C31.8725 33.9715 32.25 34.883 32.25 35.8333C32.25 34.883 32.6275 33.9715 33.2995 33.2995C33.9715 32.6275 34.883 32.25 35.8333 32.25C34.883 32.25 33.9715 31.8725 33.2995 31.2005C32.6275 30.5285 32.25 29.617 32.25 28.6667C32.25 29.617 31.8725 30.5285 31.2005 31.2005C30.5285 31.8725 29.617 32.25 28.6667 32.25ZM28.6667 10.75C29.617 10.75 30.5285 11.1275 31.2005 11.7995C31.8725 12.4715 32.25 13.383 32.25 14.3333C32.25 13.383 32.6275 12.4715 33.2995 11.7995C33.9715 11.1275 34.883 10.75 35.8333 10.75C34.883 10.75 33.9715 10.3725 33.2995 9.70047C32.6275 9.02846 32.25 8.11703 32.25 7.16667C32.25 8.11703 31.8725 9.02846 31.2005 9.70047C30.5285 10.3725 29.617 10.75 28.6667 10.75ZM16.125 32.25C16.125 29.3989 17.2576 26.6646 19.2736 24.6486C21.2896 22.6326 24.0239 21.5 26.875 21.5C24.0239 21.5 21.2896 20.3674 19.2736 18.3514C17.2576 16.3354 16.125 13.6011 16.125 10.75C16.125 13.6011 14.9924 16.3354 12.9764 18.3514C10.9604 20.3674 8.22608 21.5 5.375 21.5C8.22608 21.5 10.9604 22.6326 12.9764 24.6486C14.9924 26.6646 16.125 29.3989 16.125 32.25Z" stroke="var(--stroke-0, #00CD98)" stroke-width="2" stroke-linecap="round" stroke-linejoin="round"/>
</g>
</svg>
