<?xml version="1.0" encoding="UTF-8"?>
<svg width="31px" height="34px" viewBox="0 0 31 34" version="1.1" xmlns="http://www.w3.org/2000/svg" xmlns:xlink="http://www.w3.org/1999/xlink">
    <title>favicon</title>
    <g id="Page-1" stroke="none" stroke-width="1" fill="none" fill-rule="evenodd">
        <g id="favicon" transform="translate(0.000000, 1.000000)" fill="#3761F9" fill-rule="nonzero" stroke="#3761F9">
            <g transform="translate(1.000000, 0.000000)" id="Shape">
                <path d="M29.2298507,0.044198895 L19.0965415,4.06629834 L9.66969383,4.06629834 L0,0 L2.18561573,13.281768 L0.0883077062,20.4640884 L5.58546242,23.7569061 C8.19053975,25.3038674 10.508617,27.2707182 12.5176174,29.5469613 L14.6590792,32 L16.9109257,29.4143646 C18.8316183,27.2044199 21.0834649,25.3038674 23.5781576,23.7790055 L28.9649276,20.4640884 L27.0221581,13.281768 L29.2298507,0.044198895 Z M22.540542,22.4530387 C20.7081571,23.5801105 19.0082338,24.9281768 17.4628489,26.4088398 L15.5863101,24.3756906 L22.540542,22.4530387 Z M13.6435406,24.3535912 L11.8111557,26.3867403 C10.2657708,24.9060773 8.54377057,23.6022099 6.71138567,22.4751381 L13.6435406,24.3535912 Z M11.8332326,22.1436464 L2.09730802,19.4917127 L3.42192361,14.9392265 L11.8332326,22.1436464 Z M8.16846282,5.25966851 L3.55438517,11.2928177 L2.14146187,2.71823204 L8.16846282,5.25966851 Z M23.9534653,14.1657459 L14.6149254,22.320442 L5.09977003,14.1657459 L23.9534653,14.1657459 Z M4.74653921,12.4861878 L9.91254002,5.72375691 L18.8757722,5.72375691 L24.6157731,12.4861878 L4.74653921,12.4861878 Z M25.7196194,14.8287293 L26.9780042,19.4917127 L17.3524643,22.1436464 L25.7196194,14.8287293 Z M27.0883889,2.67403315 L25.6754656,11.1823204 L20.6419263,5.25966851 L27.0883889,2.67403315 Z"></path>
            </g>
        </g>
    </g>
</svg>