<?xml version="1.0" encoding="utf-8"?>
<!-- Generator: Adobe Illustrator 22.1.0, SVG Export Plug-In . SVG Version: 6.00 Build 0)  -->
<svg version="1.1" id="Layer_1" xmlns="http://www.w3.org/2000/svg" xmlns:xlink="http://www.w3.org/1999/xlink" x="0px" y="0px"
	 viewBox="0 0 480.3 339.4" style="enable-background:new 0 0 480.3 339.4;" xml:space="preserve" fill="#fff">
<path d="M205.5,128.8c0-6.2-0.9-11.7-2.6-16.5c-1.7-4.8-4.1-9-7.3-12.3c-3.1-3.4-6.9-5.9-11.3-7.7c-4.4-1.8-9.2-2.6-14.4-2.6
	c-5.5,0-10.7,1-15.3,2.9c-4.7,1.9-8.7,4.6-12.1,8.1c-3.4,3.5-6.1,7.6-8,12.5c-1.9,4.8-2.9,10.1-2.9,15.9c0,5.4,0.9,10.5,2.6,15.3
	c1.8,4.8,4.3,8.9,7.5,12.5c3.3,3.5,7.2,6.3,11.9,8.4c4.7,2.1,10,3.1,15.8,3.1c7,0,13.2-1.1,18.5-3.4c5.3-2.3,10.2-6.3,14.7-12.1
	l-9.4-7.4c-3,3.7-6.3,6.5-10.1,8.5c-3.7,1.9-8.3,2.9-13.7,2.9c-3.4,0-6.5-0.6-9.4-1.9c-2.9-1.3-5.4-3-7.5-5.2
	c-2.1-2.2-3.9-4.7-5.2-7.7c-1.3-2.9-2.1-6-2.3-9.2h60.4V128.8z M145.1,122.3c0.9-6.4,3.4-11.5,7.7-15.3c4.3-3.8,9.9-5.8,16.8-5.8
	c6.9,0,12.4,1.9,16.3,5.8c3.9,3.8,6,8.9,6.2,15.3H145.1z"/>
<path d="M291.1,128.8c0-6.2-0.9-11.7-2.6-16.5c-1.7-4.8-4.1-9-7.3-12.3c-3.1-3.4-6.9-5.9-11.3-7.7c-4.4-1.8-9.2-2.6-14.4-2.6
	c-5.5,0-10.7,1-15.3,2.9c-4.7,1.9-8.7,4.6-12.1,8.1c-3.4,3.5-6.1,7.6-8,12.5c-1.9,4.8-2.9,10.1-2.9,15.9c0,5.4,0.9,10.5,2.6,15.3
	c1.8,4.8,4.3,8.9,7.5,12.5c3.3,3.5,7.2,6.3,11.9,8.4c4.7,2.1,10,3.1,15.8,3.1c7,0,13.2-1.1,18.5-3.4c5.3-2.3,10.2-6.3,14.7-12.1
	l-9.4-7.4c-3,3.7-6.3,6.5-10.1,8.5c-3.7,1.9-8.3,2.9-13.7,2.9c-3.4,0-6.5-0.6-9.4-1.9c-2.9-1.3-5.4-3-7.5-5.2
	c-2.1-2.2-3.9-4.7-5.2-7.7c-1.3-2.9-2.1-6-2.3-9.2h60.4V128.8z M230.7,122.3c0.9-6.4,3.4-11.5,7.7-15.3c4.3-3.8,9.9-5.8,16.8-5.8
	c6.9,0,12.4,1.9,16.3,5.8c3.9,3.8,6,8.9,6.2,15.3H230.7z"/>
<path d="M306.6,91.6v111.2h12.5v-49.7h0.3c2.3,4.3,6,7.9,11.1,10.8c5.1,2.9,10.9,4.4,17.7,4.4c5.2,0,10.1-1,14.7-3
	c4.6-2,8.5-4.7,11.9-8.2c3.4-3.5,6-7.7,7.9-12.5c1.9-4.8,2.9-10,2.9-15.7c0-5.6-1-10.9-2.9-15.7c-1.9-4.8-4.6-8.9-8-12.5
	c-3.4-3.5-7.5-6.3-12.4-8.2c-4.8-2-10.2-3-16.1-3c-5.4,0-10.4,1.1-14.9,3.4c-4.5,2.2-8.5,5.4-11.9,9.4h-0.3V91.6H306.6z M320.9,118
	c1.2-3.4,3-6.3,5.4-8.8c2.3-2.5,5.1-4.5,8.4-5.9c3.2-1.4,6.9-2.2,10.9-2.2s7.7,0.7,10.9,2.2c3.3,1.4,6,3.4,8.4,5.9
	c2.3,2.5,4.1,5.4,5.4,8.8c1.2,3.4,1.8,7,1.8,10.9c0,3.9-0.6,7.6-1.8,10.9c-1.2,3.4-3,6.3-5.4,8.8c-2.3,2.5-5.1,4.5-8.4,5.9
	c-3.2,1.4-6.9,2.2-10.9,2.2s-7.7-0.7-10.9-2.2c-3.3-1.4-6-3.4-8.4-5.9c-2.3-2.5-4.1-5.4-5.4-8.8c-1.2-3.4-1.8-7-1.8-10.9
	C319.1,125,319.7,121.4,320.9,118z"/>
<path d="M134.3,239.6c1.8,4.8,4.3,8.9,7.5,12.5c3.3,3.5,7.2,6.3,11.9,8.4c4.7,2.1,10,3.1,15.8,3.1c7,0,13.2-1.1,18.5-3.4
	c5.3-2.3,10.2-6.3,14.7-12.1l-9.4-7.4c-3,3.7-6.3,6.5-10.1,8.5c-3.7,1.9-8.3,2.9-13.7,2.9c-3.4,0-6.5-0.6-9.4-1.9
	c-2.9-1.3-5.4-3-7.5-5.2c-2.1-2.2-3.9-4.7-5.2-7.7c-1.3-2.9-2.1-6-2.3-9.2h60.4v-4c0-6.2-0.9-11.7-2.6-16.5c-1.7-4.8-4.1-9-7.3-12.3
	c-3.1-3.4-6.9-5.9-11.3-7.7c-4.4-1.8-9.2-2.6-14.4-2.6c-5.5,0-10.7,1-15.3,2.9c-4.7,1.9-8.7,4.6-12.1,8.1c-3.4,3.5-6.1,7.6-8,12.5
	c-1.9,4.8-2.9,10.1-2.9,15.9C131.7,229.7,132.5,234.8,134.3,239.6z M152.7,202.2c4.3-3.8,9.9-5.8,16.8-5.8c6.9,0,12.4,1.9,16.3,5.8
	c3.9,3.8,6,8.9,6.2,15.3h-47C145.9,211.2,148.5,206.1,152.7,202.2z"/>
<path d="M242.4,262.1l-5.1,14.1c-1.4,3.7-3,6.7-5,8.9c-1.9,2.2-4.9,3.4-9,3.4c-1.8,0-3.4-0.1-4.8-0.2c-1.4-0.2-2.7-0.5-4-1
	l-1.6,10.9c1.7,0.8,3.5,1.4,5.5,1.6c2,0.2,3.9,0.3,5.7,0.3c3.7,0,6.9-0.5,9.5-1.5c2.6-1,4.8-2.4,6.7-4.3c1.9-1.9,3.5-4.1,4.8-6.7
	c1.3-2.6,2.6-5.5,3.9-8.7l36.1-91.9h-13.6l-22.2,58.6h-0.3l-23.2-58.6h-14.5L242.4,262.1z"/>
<polygon points="59.3,38.4 59.3,140.9 59.3,166.4 59.3,261.7 71.7,261.7 71.7,222.3 108.8,261.7 127.2,261.7 87.4,220.9 
	123.5,186.9 105.8,186.9 71.7,219.8 71.7,166.4 71.7,140.9 71.7,127.1 108.8,166.4 127.2,166.4 87.4,125.6 123.5,91.6 105.8,91.6 
	71.7,124.5 71.7,38.4 "/>
</svg>
