<?xml version="1.0" encoding="utf-8"?>
<!-- Generator: Adobe Illustrator 24.1.2, SVG Export Plug-In . SVG Version: 6.00 Build 0)  -->
<svg version="1.1" id="Layer_1" xmlns="http://www.w3.org/2000/svg" xmlns:xlink="http://www.w3.org/1999/xlink" x="0px" y="0px"
	 viewBox="0 0 480.3 339.4" style="enable-background:new 0 0 480.3 339.4;" xml:space="preserve">
<style type="text/css">
	.st0{fill:#FFFFFF;}
</style>
<g>
	<g>
		<g>
			<path class="st0" d="M376.8,259.9h6.8v-40.2h-6.8V259.9z"/>
			<rect x="376.8" y="207.6" class="st0" width="6.8" height="6.8"/>
			<path class="st0" d="M64.4,207.2c-7.4,0-15.2,2.9-15.2,9.9c0,6.3,7.2,8.1,15.7,9.5c11.6,1.8,23,4.1,23,17.2
				c-0.1,13-12.5,17.2-23.6,17.2c-10.2,0-20-3.7-24.5-13.4l6-3.5c3.7,6.9,11.5,10.2,18.6,10.2c7,0,16.4-2.2,16.4-10.7
				c0.1-7.2-8-9.3-16.7-10.6c-11.2-1.7-22-4.3-22-16c-0.2-12.1,12.1-16.2,22.1-16.2c8.6,0,16.8,1.7,21.9,10.5l-5.5,3.4
				C77.6,209.6,70.9,207.3,64.4,207.2z"/>
			<path class="st0" d="M100.1,202.1v23.7c3.5-5.4,8.9-7.2,14.1-7.3c11.5,0,17.1,7.6,17.1,18.8v22.5h-6.7v-22.4
				c0-8-4.1-12.6-11.6-12.6s-12.9,5.9-12.9,13.3v21.7h-6.8v-57.8L100.1,202.1L100.1,202.1z"/>
			<path class="st0" d="M173.2,260.1l-0.2-7.4c-3.2,5.6-9.4,8.3-15,8.3c-11.7,0-20.9-8.1-20.9-21.4c0-13.2,9.3-21.2,21-21.1
				c6.1,0,12.1,2.8,15.1,8.1l0.1-7.4h6.6v40.8h-6.5L173.2,260.1z M158.3,224.8c-8.1,0-14.6,5.8-14.6,14.9c0,9.1,6.5,15,14.6,15
				C178,254.7,178,224.8,158.3,224.8L158.3,224.8z"/>
			<path class="st0" d="M186.1,219.2h6.4l0.3,7.9c3.2-5.5,9.3-8.6,15.7-8.6c11.7,0.2,20.3,8.5,20.3,21.1c0,12.9-8.5,21.2-20.7,21.2
				c-5.8,0-12.2-2.5-15.5-8.3v26.6h-6.6V219.2z M222.2,239.7c0-9.2-6-14.6-14.4-14.6c-8.5,0-14.3,6.3-14.3,14.6s6,14.6,14.3,14.7
				C216,254.4,222.2,248.9,222.2,239.7z"/>
			<path class="st0" d="M272.5,253.4c-4.1,4.9-11.2,7.3-17.6,7.3c-12.6,0-21.5-8.3-21.5-21.3c0-12.3,8.8-21.2,21.2-21.2
				c12.5,0,22,7.7,20.4,24h-34.7c0.7,7.5,6.9,12.2,14.8,12.2c4.6,0,10.2-1.8,13-5.1L272.5,253.4L272.5,253.4z M268.5,236.5
				c-0.3-7.9-5.8-12.2-13.8-12.2c-7.1,0-13.3,4.3-14.5,12.1L268.5,236.5L268.5,236.5z"/>
			<path class="st0" d="M303.3,207.2c-7.4,0-15.2,2.9-15.2,9.9c0,6.3,7.2,8.1,15.7,9.5c11.6,1.8,23,4.1,23,17.2
				c-0.1,13-12.5,17.2-23.6,17.2c-10.2,0-20-3.7-24.5-13.4l6-3.5c3.7,6.9,11.5,10.2,18.6,10.2c7,0,16.4-2.2,16.4-10.7
				c0.1-7.2-8-9.3-16.7-10.6c-11.2-1.7-22-4.3-22-16c-0.2-12.1,12.1-16.2,22.1-16.2c8.6,0,16.8,1.7,21.9,10.5l-5.5,3.4
				C316.4,209.6,309.7,207.3,303.3,207.2z"/>
			<path class="st0" d="M338.8,202.1v23.7c3.5-5.4,8.9-7.2,14.1-7.3c11.5,0,17.1,7.6,17.1,18.8v22.5h-6.7v-22.4
				c0-8-4.1-12.6-11.6-12.6c-7.4,0-12.9,5.9-12.9,13.3v21.7h-6.8V202L338.8,202.1L338.8,202.1z"/>
			<g>
				<polygon class="st0" points="396.5,260.1 396.5,260 396.4,260 				"/>
				<path class="st0" d="M404.5,216.3c0-6.1,2.8-8.8,7.2-8.8c0.1,0,0.2,0,0.3,0l1.5-5.8c-0.6-0.1-1.3-0.1-1.9-0.1
					c-8.6,0-13.7,5.5-13.7,14.8v3.2h-8v6h8v34.4h6.7v-34.4h8.1v-6h-8.1V216.3z"/>
			</g>
			<path class="st0" d="M439.1,254.2c-0.5,0.1-1.1,0.1-1.6,0.1c-4.9,0-6.4-3.1-6.4-7.9v-21h8.7v-5.9h-8.6v-12.4l-6.8,0.7v11.7h-8.2
				v5.9h8.2v21c0,9,4.1,14.1,12.9,14c1.1,0,2.1-0.2,3.2-0.4L439.1,254.2z"/>
		</g>
		<path class="st0" d="M290.5,60.4l-35,13.9h-32.6l-33.4-14l7.6,45.8l-7.3,24.8l19,11.4c9,5.4,17,12.1,23.9,20l7.4,8.5l7.8-8.9
			c6.7-7.6,14.4-14.2,23.1-19.5l18.6-11.4l-6.7-24.8L290.5,60.4z M267.3,137.7c-6.3,3.9-12.2,8.5-17.6,13.7l-6.5-7.1L267.3,137.7z
			 M236.6,144.4l-6.3,7c-5.4-5.1-11.3-9.6-17.6-13.5L236.6,144.4z M230.4,136.7l-33.6-9.2l4.6-15.7L230.4,136.7z M217.7,78.4
			l-16,20.8l-4.9-29.6L217.7,78.4z M272.2,109.1l-32.3,28.2L207,109.1H272.2z M205.8,103.4L223.7,80h31l19.8,23.3H205.8z
			 M278.3,111.4l4.4,16.1l-33.3,9.2L278.3,111.4z M283.1,69.5l-4.9,29.3l-17.4-20.5L283.1,69.5z"/>
	</g>
</g>
</svg>
