<svg width="56" height="56" viewBox="0 0 56 56" fill="none" xmlns="http://www.w3.org/2000/svg">
<g clip-path="url(#clip0_15370_1190)">
<path d="M56 28C56 12.536 43.464 0 28 0C12.536 0 0 12.536 0 28C0 43.464 12.536 56 28 56C43.464 56 56 43.464 56 28Z" fill="#03111C"/>
<path fill-rule="evenodd" clip-rule="evenodd" d="M42.2854 28.0142H47.4842C47.4842 27.7968 47.4806 27.5802 47.4735 27.3644H43.4178L47.4311 26.566C47.3974 26.1075 47.348 25.6533 47.2831 25.2042L43.4785 25.9609L47.1568 24.4374C47.0681 23.959 46.9619 23.4869 46.8389 23.0215L43.2393 24.5126L46.6192 22.2542C46.4668 21.7607 46.2953 21.2757 46.1057 20.7998L42.6854 23.0852L45.7673 20.0032C45.5415 19.5025 45.2949 19.0131 45.029 18.536L41.8183 21.7467L44.5289 17.6899C44.2193 17.1949 43.8881 16.7148 43.5365 16.2509L40.6529 20.5666L42.8128 15.3521C42.4111 14.8823 41.9874 14.4317 41.5432 14.002L39.34 19.3214C41.1875 21.7302 42.2854 24.7439 42.2854 28.0142ZM13.6929 28.0142C13.6929 27.6205 13.7088 27.2303 13.74 26.8447H8.52865C8.50576 27.2315 8.49414 27.6215 8.49414 28.0142H13.6929ZM14.0827 24.6841L8.98016 23.6691C9.15043 22.9211 9.36372 22.1894 9.61729 21.4769L14.7924 22.5063C14.5002 23.2057 14.2618 23.9334 14.0827 24.6841ZM15.7841 20.5656L10.9371 18.5579C11.3014 17.9023 11.7024 17.27 12.1374 16.6636L17.1196 18.7273C16.6278 19.3024 16.1809 19.917 15.7841 20.5656ZM18.595 17.2373L14.1596 14.2738C14.6796 13.7504 15.2292 13.2564 15.8055 12.7945L20.4246 15.8809C19.7784 16.2847 19.1666 16.7387 18.595 17.2373ZM22.136 14.9671L18.2763 11.1074C18.9071 10.7441 19.5601 10.4152 20.2329 10.1232L24.3064 14.1968C23.557 14.396 22.8317 14.6545 22.136 14.9671ZM25.9829 13.8575L22.8697 9.19834C23.5626 9.0103 24.2706 8.85949 24.9918 8.74821L28.3149 13.7215C28.2066 13.7191 28.098 13.7179 27.9892 13.7179C27.3083 13.7179 26.6384 13.7654 25.9829 13.8575ZM29.7198 13.8215L27.5257 8.52463C27.6797 8.52103 27.8342 8.51923 27.9892 8.51923C28.553 8.51923 29.1112 8.54317 29.6629 8.59008L32.0264 14.2959C31.281 14.0769 30.5103 13.917 29.7198 13.8215ZM33.031 14.6323L31.8929 8.91015C32.5822 9.05027 33.2584 9.22675 33.9192 9.43752L35.1528 15.6395C34.4785 15.2483 33.7694 14.9106 33.031 14.6323ZM35.7438 16.0018V10.1225C36.368 10.3934 36.9752 10.696 37.5634 11.0283V17.3972C36.9963 16.8854 36.3879 16.4184 35.7438 16.0018ZM37.8232 17.6374L38.9645 11.9C39.5026 12.2672 40.0214 12.6607 40.5189 13.0785L39.2901 19.2567C38.8426 18.6802 38.352 18.1388 37.8232 17.6374Z" fill="#E6EDE4"/>
<path fill-rule="evenodd" clip-rule="evenodd" d="M37.0865 28.0137H42.2851C42.2851 27.7648 42.2788 27.5175 42.2662 27.2718L39.6801 27.2266L42.2313 26.7653C42.1778 26.1462 42.0848 25.5383 41.9548 24.9442L39.0256 25.4739L41.8177 24.3742C41.6659 23.796 41.479 23.2322 41.2591 22.6852L38.0638 23.9438L40.9908 22.0611C40.7512 21.5385 40.4808 21.0328 40.1824 20.5464L36.8582 22.6846L39.7534 19.8887C39.4388 19.434 39.0985 18.9984 38.7346 18.5841L35.475 21.7318L38.1168 17.9237C37.7418 17.5472 37.3459 17.1917 36.9311 16.8586L33.9858 21.1042L36.1009 16.2401C35.6815 15.9507 35.246 15.683 34.7958 15.4388L32.7102 20.2355C35.3341 21.8316 37.0865 24.718 37.0865 28.0137ZM18.8911 28.0137H13.6924C13.6924 27.7721 13.6984 27.5319 13.7103 27.2933L18.9125 27.384C18.8983 27.592 18.8911 27.802 18.8911 28.0137ZM33.7401 14.9213C33.2943 14.7251 32.8364 14.5511 32.368 14.4005L31.2564 19.5204C31.7243 19.7006 32.1736 19.9183 32.6005 20.1698L33.7401 14.9213ZM31.0918 14.0551C30.6387 13.9547 30.1775 13.876 29.7094 13.8198L29.6179 19.0615C30.0917 19.1471 30.5528 19.2695 30.9981 19.4255L31.0918 14.0551ZM27.9888 13.7173C27.6243 13.7173 27.2632 13.731 26.9055 13.7578L27.8386 18.9172C27.8885 18.9164 27.9386 18.916 27.9888 18.916C28.3979 18.916 28.8006 18.943 29.1954 18.9953L28.2414 13.7196C28.1574 13.7181 28.0731 13.7173 27.9888 13.7173ZM25.276 19.3274L22.3974 14.8521C22.0277 15.0093 21.6659 15.1818 21.313 15.3684L24.1422 19.7669C24.5075 19.5961 24.8861 19.4489 25.276 19.3274ZM23.3681 20.1751L19.6929 16.3691C19.385 16.5889 19.0863 16.8204 18.7973 17.0633L22.4224 20.8171C22.7232 20.5841 23.0391 20.3695 23.3681 20.1751ZM17.3383 18.4766C17.1014 18.741 16.8741 19.0143 16.6571 19.2959L20.9371 22.265C21.1632 21.988 21.4054 21.7245 21.6621 21.4761L17.3383 18.4766ZM15.4785 21.0889C15.3174 21.3793 15.1661 21.6759 15.025 21.9783L19.7963 24.0529C19.9423 23.7514 20.1044 23.4592 20.2816 23.1774L15.4785 21.0889ZM14.2399 24.0816C14.155 24.3791 14.0795 24.6806 14.0138 24.9857L19.095 26.0889C19.161 25.7829 19.2423 25.4824 19.3382 25.1886L14.2399 24.0816ZM27.2578 18.9449C26.8237 18.9794 26.3983 19.0444 25.9834 19.1377L24.0632 14.263C24.4679 14.1477 24.8797 14.0498 25.2982 13.9701L27.2578 18.9449Z" fill="#E6EDE4"/>
<path fill-rule="evenodd" clip-rule="evenodd" d="M36.3612 28.0144L37.087 27.989C37.0866 27.8438 37.0827 27.6994 37.0756 27.5559L32.6656 27.7099L32.5884 27.6973L36.9871 26.6616C36.9624 26.4963 36.9334 26.3325 36.9 26.1702L32.7226 27.1539L36.6894 25.3461C36.634 25.1651 36.5731 24.9865 36.5068 24.8104L32.7917 26.5035L36.1852 24.0606C36.093 23.8697 35.9943 23.6826 35.8894 23.4995L32.6951 25.7991L35.4652 22.8285C35.3311 22.6356 35.1898 22.448 35.0415 22.2664L32.4155 25.0826L34.5204 21.6809C34.3407 21.4957 34.1532 21.318 33.9584 21.1485L31.9459 24.4005L33.3447 20.6592C33.1176 20.4935 32.8825 20.3381 32.64 20.1936L31.2916 23.8002L31.9403 19.8171C31.667 19.6851 31.386 19.5664 31.0984 19.4618L30.4686 23.3288L30.3251 19.2193C30.0112 19.1361 29.6907 19.0694 29.3645 19.0199L29.5044 23.0289L28.54 18.9331C28.3579 18.9222 28.1742 18.9167 27.9893 18.9167C27.8229 18.9167 27.6575 18.9211 27.4934 18.9299L28.4372 22.9381L26.6491 19.0147C26.2795 19.0693 25.9171 19.1461 25.5633 19.2437L27.3134 23.0841L24.7427 19.513C24.3761 19.6531 24.021 19.8162 23.6791 20.0005L26.1873 23.4848L22.933 20.45C22.5916 20.6787 22.2666 20.9298 21.9599 21.2013L25.1162 24.1445L21.3384 21.8068C21.0454 22.1205 20.7744 22.4552 20.5277 22.808L24.1604 25.056L20.073 23.5278C19.852 23.9169 19.6589 24.3238 19.4963 24.746L23.3783 26.1974L19.237 25.5229C19.1099 25.9702 19.0161 26.4316 18.9587 26.9041L22.823 27.5335L18.898 27.6706C18.8938 27.7846 18.8916 27.8992 18.8916 28.0144H24.0903C24.0903 25.861 25.8359 24.1153 27.9893 24.1153C30.1427 24.1153 31.8883 25.861 31.8883 28.0144H36.3612Z" fill="#E6EDE4"/>
<path fill-rule="evenodd" clip-rule="evenodd" d="M42.2854 27.9442H47.4842C47.4842 28.1617 47.4806 28.3783 47.4735 28.5941H43.4178L47.4311 29.3923C47.3974 29.8509 47.348 30.3051 47.2831 30.7543L43.4784 29.9975L47.1568 31.5211C47.0681 31.9993 46.9619 32.4715 46.8389 32.9369L43.2393 31.4458L46.6192 33.7042C46.4668 34.1977 46.2953 34.6828 46.1057 35.1586L42.6854 32.8733L45.7673 35.9553C45.5415 36.4559 45.2949 36.9454 45.029 37.4224L41.8183 34.2118L44.5289 38.2686C44.2193 38.7636 43.8881 39.2437 43.5365 39.7076L40.6529 35.3918L42.8128 40.6063C42.4111 41.0762 41.9874 41.5267 41.5432 41.9564L39.34 36.6371C41.1875 34.2283 42.2854 31.2145 42.2854 27.9442ZM13.6928 27.9442C13.6928 28.338 13.7088 28.7281 13.74 29.1138H8.52865C8.50575 28.7269 8.49414 28.3369 8.49414 27.9442H13.6928ZM14.0827 31.2744L8.98016 32.2894C9.15043 33.0373 9.36372 33.769 9.61729 34.4816L14.7924 33.4522C14.5001 32.7527 14.2618 32.025 14.0827 31.2744ZM15.7841 35.3928L10.9371 37.4005C11.3014 38.0561 11.7024 38.6884 12.1374 39.2948L17.1196 37.2311C16.6278 36.656 16.1809 36.0415 15.7841 35.3928ZM18.595 38.7211L14.1596 41.6847C14.6796 42.208 15.2292 42.702 15.8055 43.164L20.4246 40.0775C19.7784 39.6738 19.1666 39.2198 18.595 38.7211ZM22.136 40.9913L18.2763 44.8511C18.9071 45.2142 19.5601 45.5432 20.2329 45.8353L24.3064 41.7617C23.557 41.5625 22.8317 41.3039 22.136 40.9913ZM25.9829 42.1009L22.8697 46.7601C23.5626 46.9482 24.2706 47.099 24.9918 47.2102L28.3149 42.237C28.2066 42.2393 28.098 42.2405 27.9892 42.2405C27.3083 42.2405 26.6384 42.1929 25.9829 42.1009ZM29.7198 42.1369L27.5257 47.4338C27.6797 47.4374 27.8342 47.4392 27.9892 47.4392C28.553 47.4392 29.1112 47.4153 29.6629 47.3684L32.0264 41.6625C31.281 41.8816 30.5103 42.0415 29.7198 42.1369ZM33.031 41.3261L31.8929 47.0483C32.5822 46.9082 33.2584 46.7317 33.9192 46.5209L35.1528 40.3189C34.4785 40.7101 33.7694 41.0478 33.031 41.3261ZM35.7438 39.9567V45.8359C36.368 45.5651 36.9752 45.2624 37.5634 44.9302V38.5613C36.9963 39.0731 36.3879 39.5401 35.7438 39.9567ZM37.8232 38.321L38.9645 44.0585C39.5026 43.6913 40.0214 43.2978 40.5189 42.8799L39.29 36.7017C38.8426 37.2782 38.352 37.8196 37.8232 38.321Z" fill="#E6EDE4"/>
<path fill-rule="evenodd" clip-rule="evenodd" d="M37.0865 27.9442H42.2851C42.2851 28.193 42.2788 28.4404 42.2662 28.6861L39.6801 28.7313L42.2313 29.1926C42.1778 29.8117 42.0848 30.4196 41.9548 31.0136L39.0256 30.484L41.8177 31.5837C41.6659 32.1619 41.479 32.7256 41.2591 33.2727L38.0638 32.0141L40.9908 33.8968C40.7512 34.4194 40.4808 34.9251 40.1824 35.4115L36.8582 33.2733L39.7534 36.0692C39.4388 36.5239 39.0985 36.9595 38.7346 37.3738L35.475 34.2261L38.1168 38.0342C37.7418 38.4107 37.3459 38.7662 36.9311 39.0993L33.9858 34.8536L36.1009 39.7178C35.6815 40.0072 35.246 40.2749 34.7958 40.5191L32.7102 35.7224C35.3341 34.1262 37.0865 31.2399 37.0865 27.9442ZM18.8911 27.9442H13.6924C13.6924 28.1858 13.6984 28.426 13.7103 28.6646L18.9125 28.5738C18.8983 28.3658 18.8911 28.1559 18.8911 27.9442ZM33.7401 41.0366C33.2943 41.2327 32.8364 41.4068 32.368 41.5573L31.2564 36.4374C31.7243 36.2573 32.1736 36.0396 32.6005 35.7881L33.7401 41.0366ZM31.0918 41.9028C30.6387 42.0032 30.1775 42.0819 29.7094 42.1381L29.6179 36.8964C30.0917 36.8108 30.5528 36.6884 30.9981 36.5324L31.0918 41.9028ZM27.9888 42.2405C27.6243 42.2405 27.2632 42.2269 26.9055 42.2001L27.8386 37.0407C27.8885 37.0415 27.9386 37.0419 27.9888 37.0419C28.3979 37.0419 28.8006 37.0149 29.1954 36.9626L28.2414 42.2383C28.1574 42.2398 28.0731 42.2405 27.9888 42.2405ZM25.276 36.6305L22.3974 41.1058C22.0277 40.9486 21.6659 40.7761 21.313 40.5894L24.1422 36.191C24.5075 36.3618 24.8861 36.509 25.276 36.6305ZM23.3681 35.7828L19.6929 39.5888C19.385 39.369 19.0863 39.1374 18.7973 38.8946L22.4224 35.1408C22.7232 35.3738 23.0391 35.5884 23.3681 35.7828ZM17.3383 37.4813C17.1014 37.2169 16.8741 36.9436 16.6571 36.662L20.9371 33.6929C21.1632 33.9699 21.4054 34.2334 21.6621 34.4818L17.3383 37.4813ZM15.4785 34.869C15.3174 34.5786 15.1661 34.282 15.025 33.9796L19.7962 31.905C19.9423 32.2065 20.1044 32.4987 20.2816 32.7805L15.4785 34.869ZM14.2399 31.8763C14.155 31.5787 14.0795 31.2773 14.0138 30.9722L19.095 29.869C19.161 30.175 19.2423 30.4755 19.3382 30.7693L14.2399 31.8763ZM27.2578 37.013C26.8237 36.9785 26.3983 36.9135 25.9834 36.8202L24.0632 41.6948C24.4679 41.8102 24.8797 41.9081 25.2982 41.9878L27.2578 37.013Z" fill="#E6EDE4"/>
<path fill-rule="evenodd" clip-rule="evenodd" d="M36.3612 27.9442L37.087 27.9696C37.0866 28.1148 37.0827 28.2592 37.0756 28.4027L32.6656 28.2487L32.5884 28.2613L36.9871 29.297C36.9624 29.4622 36.9334 29.6261 36.9 29.7884L32.7226 28.8047L36.6894 30.6125C36.634 30.7935 36.5731 30.9721 36.5068 31.1482L32.7917 29.4551L36.1852 31.898C36.093 32.0889 35.9943 32.276 35.8894 32.4591L32.6951 30.1595L35.4652 33.1301C35.3311 33.323 35.1898 33.5105 35.0415 33.6922L32.4155 30.876L34.5204 34.2776C34.3407 34.4629 34.1532 34.6406 33.9584 34.8101L31.9459 31.558L33.3447 35.2994C33.1176 35.465 32.8825 35.6205 32.64 35.765L31.2916 32.1583L31.9403 36.1414C31.667 36.2735 31.386 36.3922 31.0984 36.4968L30.4686 32.6297L30.3251 36.7393C30.0112 36.8224 29.6907 36.8892 29.3645 36.9387L29.5044 32.9297L28.54 37.0255C28.3579 37.0364 28.1742 37.0419 27.9893 37.0419C27.8229 37.0419 27.6575 37.0374 27.4934 37.0286L28.4372 33.0204L26.6491 36.9439C26.2795 36.8893 25.9171 36.8125 25.5633 36.7149L27.3134 32.8745L24.7427 36.4455C24.3761 36.3054 24.021 36.1423 23.6791 35.958L26.1873 32.4738L22.933 35.5086C22.5916 35.2799 22.2666 35.0288 21.9599 34.7573L25.1162 31.814L21.3384 34.1518C21.0454 33.8379 20.7744 33.5034 20.5277 33.1505L24.1604 30.9025L20.073 32.4307C19.852 32.0417 19.6589 31.6348 19.4963 31.2126L23.3783 29.7612L19.237 30.4357C19.1099 29.9884 19.0161 29.527 18.9587 29.0544L22.823 28.4251L18.898 28.288C18.8938 28.1739 18.8916 28.0594 18.8916 27.9442H24.0903C24.0903 30.0976 25.8359 31.8433 27.9893 31.8433C30.1427 31.8433 31.8883 30.0976 31.8883 27.9442H36.3612Z" fill="#E6EDE4"/>
</g>
<defs>
<clipPath id="clip0_15370_1190">
<rect width="56" height="56" fill="white"/>
</clipPath>
</defs>
</svg>
