<svg width="500" height="120" viewBox="0 0 500 120" fill="none" xmlns="http://www.w3.org/2000/svg">
<path d="M284.9 53.2H250.5V86.6C250.5 90.6 253.2 93 257.2 93H284.9V115H253C237.7 115 227.8 105.6 227.8 90.5V53.2H216.1V31.4H227.8V2.5H250.4V31.3H284.8V53.2H284.9Z" fill="white"/>
<path d="M469.1 25.7H407V49.3H462.8V71.4H407V114.8H383.2V2.5H469.1V25.7Z" fill="white"/>
<path d="M500 31.4V114.9H477.4V31.4H500Z" fill="white"/>
<path d="M500 0.400002H477.4V23H500V0.400002Z" fill="white"/>
<path d="M187.6 31.4V35.2C180.9 31.2 173.1 28.9 164.8 28.9C140.3 28.9 120.5 48.7 120.5 73.2C120.5 97.7 140.3 117.5 164.8 117.5C173.1 117.5 180.9 115.2 187.6 111.2V115H210.2V31.4H187.6ZM164.8 95.9C152.2 95.9 142 85.7 142 73.1C142 60.5 152.2 50.3 164.8 50.3C177.4 50.3 187.6 60.5 187.6 73.1C187.6 85.7 177.4 95.9 164.8 95.9Z" fill="white"/>
<path d="M349.8 88.4C345.6 93 339.6 95.9 332.9 95.9C323 95.9 314.5 89.5 311.4 80.6H376.5C376.9 78.1 377.2 75.6 377.2 73.1C377.2 48.6 357.4 28.8 332.9 28.8C308.4 28.8 288.6 48.6 288.6 73.1C288.6 97.6 308.4 117.4 332.9 117.4C352 117.4 368.3 105.3 374.5 88.4H349.8ZM332.9 50.3C341.9 50.3 349.6 55.5 353.3 63H312.4C316.2 55.5 323.9 50.3 332.9 50.3Z" fill="white"/>
<path d="M116.2 47.9H54.4C48.5 47.9 43.7 52.7 43.7 58.6C43.7 64.5 48.5 69.3 54.4 69.3H91.9C87.4 83.4 74.2 93.5 58.6 93.5C39.3 93.5 23.6 77.8 23.6 58.5C23.6 39.2 39.3 23.5 58.6 23.5C69.6 23.5 79.4 28.6 85.8 36.5H113C104.3 15.2 83.2 0 58.6 0C26.2 0 0 26.2 0 58.6C0 91 26.2 117.2 58.6 117.2C91 117.2 117.2 91 117.2 58.6C117.2 54.9 116.9 51.4 116.2 47.9Z" fill="white"/>
</svg>
