<svg width="201" height="377" viewBox="0 0 201 377" fill="none" xmlns="http://www.w3.org/2000/svg">
<g filter="url(#filter0_di_872_4893)">
<path d="M-55.3341 337.571L-40.2136 368.591L-10.0981 348.285C15.7021 330.871 43.9395 317.512 73.6455 308.668L140.71 288.868L137.611 210.504L196.602 80.6526L82.0046 94.268L-14.5034 68.4087L-102.036 0.266244L-116.092 142.436L-160.068 208.377L-110.291 259.133C-88.0021 282.174 -69.4577 308.648 -55.3378 337.585L-55.3341 337.571ZM-61.0833 292.281C-71.2517 276.937 -82.6953 262.505 -95.2906 249.141L-39.5599 281.72L-61.0698 292.284L-61.0833 292.281ZM-14.2527 269.169L-88.956 159.454L103.763 211.093L-14.2527 269.169ZM15.454 312.715L1.81125 292.732L66.6664 292.229C49.1055 297.593 32.0151 304.452 15.5789 312.734L15.454 312.715ZM14.2203 274.834L119.929 222.738L119.999 273.967L14.2338 274.838L14.2203 274.834ZM167.541 101.93L129.712 185.259L94.5687 110.62L167.533 101.957L167.541 101.93ZM-16.5912 86.2287L75.1049 110.799L115.141 195.806L-87.944 141.39L-16.6047 86.2251L-16.5912 86.2287ZM-87.6231 33.9252L-32.9379 76.4989L-96.7527 125.794L-87.6231 33.9252ZM-107.949 162.997L-41.9298 259.833L-134.058 205.981L-107.949 162.997Z" fill="url(#paint0_linear_872_4893)"/>
</g>
<defs>
<filter id="filter0_di_872_4893" x="-164.068" y="0.266357" width="364.67" height="376.324" filterUnits="userSpaceOnUse" color-interpolation-filters="sRGB">
<feFlood flood-opacity="0" result="BackgroundImageFix"/>
<feColorMatrix in="SourceAlpha" type="matrix" values="0 0 0 0 0 0 0 0 0 0 0 0 0 0 0 0 0 0 127 0" result="hardAlpha"/>
<feOffset dy="4"/>
<feGaussianBlur stdDeviation="2"/>
<feComposite in2="hardAlpha" operator="out"/>
<feColorMatrix type="matrix" values="0 0 0 0 0 0 0 0 0 0 0 0 0 0 0 0 0 0 0.25 0"/>
<feBlend mode="normal" in2="BackgroundImageFix" result="effect1_dropShadow_872_4893"/>
<feBlend mode="normal" in="SourceGraphic" in2="effect1_dropShadow_872_4893" result="shape"/>
<feColorMatrix in="SourceAlpha" type="matrix" values="0 0 0 0 0 0 0 0 0 0 0 0 0 0 0 0 0 0 127 0" result="hardAlpha"/>
<feOffset dy="1"/>
<feGaussianBlur stdDeviation="0.5"/>
<feComposite in2="hardAlpha" operator="arithmetic" k2="-1" k3="1"/>
<feColorMatrix type="matrix" values="0 0 0 0 1 0 0 0 0 1 0 0 0 0 1 0 0 0 0.2 0"/>
<feBlend mode="normal" in2="shape" result="effect2_innerShadow_872_4893"/>
</filter>
<linearGradient id="paint0_linear_872_4893" x1="46.2705" y1="40.005" x2="-41.6693" y2="368.201" gradientUnits="userSpaceOnUse">
<stop stop-color="#49E423"/>
<stop offset="1" stop-color="#1B7A98"/>
</linearGradient>
</defs>
</svg>
