<svg width="201" height="410" viewBox="0 0 201 410" fill="none" xmlns="http://www.w3.org/2000/svg">
<g filter="url(#filter0_di_959_6206)">
<path d="M-55.3341 338.571L-40.2136 369.591L-10.0981 349.285C15.7021 331.871 43.9395 318.512 73.6455 309.668L140.71 289.868L137.611 211.504L196.602 81.6526L82.0046 95.268L-14.5034 69.4087L-102.036 1.26624L-116.092 143.436L-160.068 209.377L-110.291 260.133C-88.0021 283.174 -69.4577 309.648 -55.3378 338.585L-55.3341 338.571ZM-61.0833 293.281C-71.2517 277.937 -82.6953 263.505 -95.2906 250.141L-39.5599 282.72L-61.0698 293.284L-61.0833 293.281ZM-14.2527 270.169L-88.956 160.454L103.763 212.093L-14.2527 270.169ZM15.454 313.715L1.81126 293.732L66.6664 293.229C49.1055 298.593 32.0151 305.452 15.5789 313.734L15.454 313.715V313.715ZM14.2203 275.834L119.929 223.738L119.999 274.967L14.2338 275.838L14.2203 275.834ZM167.541 102.93L129.712 186.259L94.5687 111.62L167.533 102.957L167.541 102.93ZM-16.5912 87.2287L75.1049 111.799L115.141 196.806L-87.944 142.39L-16.6047 87.2251L-16.5912 87.2287ZM-87.6231 34.9252L-32.9379 77.4989L-96.7527 126.794L-87.6231 34.9252V34.9252ZM-107.949 163.997L-41.9298 260.833L-134.058 206.981L-107.949 163.997V163.997Z" fill="#49E423"/>
</g>
<path d="M-55.3341 338.571L-40.2136 369.591L-10.0981 349.285C15.7021 331.871 43.9395 318.512 73.6455 309.668L140.71 289.868L137.611 211.504L196.602 81.6526L82.0046 95.268L-14.5034 69.4087L-102.036 1.26624L-116.092 143.436L-160.068 209.377L-110.291 260.133C-88.0021 283.174 -69.4577 309.648 -55.3378 338.585L-55.3341 338.571ZM-61.0833 293.281C-71.2517 277.937 -82.6953 263.505 -95.2906 250.141L-39.5599 282.72L-61.0698 293.284L-61.0833 293.281ZM-14.2527 270.169L-88.956 160.454L103.763 212.093L-14.2527 270.169ZM15.454 313.715L1.81126 293.732L66.6664 293.229C49.1055 298.593 32.0151 305.452 15.5789 313.734L15.454 313.715V313.715ZM14.2203 275.834L119.929 223.738L119.999 274.967L14.2338 275.838L14.2203 275.834ZM167.541 102.93L129.712 186.259L94.5687 111.62L167.533 102.957L167.541 102.93ZM-16.5912 87.2287L75.1049 111.799L115.141 196.806L-87.944 142.39L-16.6047 87.2251L-16.5912 87.2287ZM-87.6231 34.9252L-32.9379 77.4989L-96.7527 126.794L-87.6231 34.9252V34.9252ZM-107.949 163.997L-41.9298 260.833L-134.058 206.981L-107.949 163.997V163.997Z" fill="url(#paint0_linear_959_6206)"/>
<defs>
<filter id="filter0_di_959_6206" x="-164.068" y="1.26611" width="364.67" height="376.325" filterUnits="userSpaceOnUse" color-interpolation-filters="sRGB">
<feFlood flood-opacity="0" result="BackgroundImageFix"/>
<feColorMatrix in="SourceAlpha" type="matrix" values="0 0 0 0 0 0 0 0 0 0 0 0 0 0 0 0 0 0 127 0" result="hardAlpha"/>
<feOffset dy="4"/>
<feGaussianBlur stdDeviation="2"/>
<feComposite in2="hardAlpha" operator="out"/>
<feColorMatrix type="matrix" values="0 0 0 0 0 0 0 0 0 0 0 0 0 0 0 0 0 0 0.25 0"/>
<feBlend mode="normal" in2="BackgroundImageFix" result="effect1_dropShadow_959_6206"/>
<feBlend mode="normal" in="SourceGraphic" in2="effect1_dropShadow_959_6206" result="shape"/>
<feColorMatrix in="SourceAlpha" type="matrix" values="0 0 0 0 0 0 0 0 0 0 0 0 0 0 0 0 0 0 127 0" result="hardAlpha"/>
<feOffset dy="1"/>
<feGaussianBlur stdDeviation="0.5"/>
<feComposite in2="hardAlpha" operator="arithmetic" k2="-1" k3="1"/>
<feColorMatrix type="matrix" values="0 0 0 0 1 0 0 0 0 1 0 0 0 0 1 0 0 0 0.2 0"/>
<feBlend mode="normal" in2="shape" result="effect2_innerShadow_959_6206"/>
</filter>
<linearGradient id="paint0_linear_959_6206" x1="46.2705" y1="41.005" x2="-41.6693" y2="369.201" gradientUnits="userSpaceOnUse">
<stop stop-color="#49E423"/>
<stop offset="1" stop-color="#1B7A98"/>
</linearGradient>
</defs>
</svg>
