<?xml version="1.0" encoding="UTF-8"?>
<svg width="337px" height="196px" viewBox="0 0 337 196" version="1.1" xmlns="http://www.w3.org/2000/svg" xmlns:xlink="http://www.w3.org/1999/xlink">
    <!-- Generator: Sketch 54.1 (76490) - https://sketchapp.com -->
    <title>Artboard</title>
    <desc>Created with Sketch.</desc>
    <g id="Artboard" stroke="none" stroke-width="1" fill="none" fill-rule="evenodd">
        <g id="KeepKey_button_update-(1)" transform="translate(19.000000, 26.000000)" stroke="#FFFFFF">
            <g id="keepkey" transform="translate(0.000000, 32.000000)">
                <g id="el_XGiFipI_4-_1_">
                    <path d="M277.6,119.9 L3,119.9 C1.4,119.9 0.1,118.6 0.1,117 L0.1,3.6 C0.1,2 1.4,0.7 3,0.7 L277.6,0.7 C279.2,0.7 280.5,2 280.5,3.6 L280.5,117 C280.5,118.6 279.2,119.9 277.6,119.9" id="el_Bqg2Kc3wvJ_1_"></path>
                    <path d="M19.9,28.4 L260.8,28.4 C261.7,28.4 262.5,29.1 262.5,30.1 L262.5,88 C262.5,88.9 261.8,89.7 260.8,89.7 L19.9,89.7 C19,89.7 18.2,89 18.2,88 L18.2,30.1 C18.3,29.2 19,28.4 19.9,28.4 Z" id="el_QOEyJzgVgp_1_"></path>
                    <path d="M247.1,53.1 C242.5,53.1 238.8,49.4 238.8,44.8 C238.8,40.2 242.5,36.5 247.1,36.5 C251.7,36.5 255.4,40.2 255.4,44.8 C255.4,49.4 251.6,53.1 247.1,53.1 Z M242.5,46.4 L251.9,46.4 L247.2,41.7 L242.5,46.4 Z" id="el_H6pGs3dt9c_1_"></path>
                </g>
            </g>
            <g id="button" transform="translate(236.000000, 25.000000)">
                <g id="el_kRkkSiYguD">
                    <path d="M19.9,0.7 L2.4,0.7 C1.5,0.7 0.8,1.2 0.8,1.8 L0.8,6.7 C0.8,7.3 1.5,7.8 2.4,7.8 L19.9,7.8 C20.8,7.8 21.5,7.3 21.5,6.7 L21.5,1.8 C21.5,1.2 20.8,0.7 19.9,0.7" id="el_6ycOCa0QSa"></path>
                </g>
            </g>
            <g id="arrow_1_" transform="translate(236.000000, 0.000000)">
                <polygon id="arrow" points="3.1 0.6 11.2 8.7 19.3 0.6 21.8 3.1 11.2 13.8 0.5 3.1"></polygon>
            </g>
        </g>
        <path d="M138.886719,39 L137.480469,39 L137.480469,35.1386719 L133.53125,35.1386719 L133.53125,39 L132.130859,39 L132.130859,30.4335938 L133.53125,30.4335938 L133.53125,33.9375 L137.480469,33.9375 L137.480469,30.4335938 L138.886719,30.4335938 L138.886719,39 Z M148.748047,34.7050781 C148.748047,36.0996163 148.399418,37.1835899 147.702148,37.9570312 C147.004879,38.7304726 146.017585,39.1171875 144.740234,39.1171875 C143.447259,39.1171875 142.454105,38.7334023 141.760742,37.9658203 C141.067379,37.1982383 140.720703,36.1074289 140.720703,34.6933594 C140.720703,33.2792898 141.069332,32.1933632 141.766602,31.4355469 C142.463871,30.6777306 143.458978,30.2988281 144.751953,30.2988281 C146.025397,30.2988281 147.009762,30.6835899 147.705078,31.453125 C148.400394,32.2226601 148.748047,33.3066336 148.748047,34.7050781 Z M142.208984,34.7050781 C142.208984,35.7597709 142.421873,36.5595676 142.847656,37.1044922 C143.27344,37.6494168 143.904293,37.921875 144.740234,37.921875 C145.57227,37.921875 146.200193,37.6523464 146.624023,37.1132812 C147.047854,36.5742161 147.259766,35.7714897 147.259766,34.7050781 C147.259766,33.6542916 147.049807,32.8574246 146.629883,32.3144531 C146.209959,31.7714817 145.583989,31.5 144.751953,31.5 C143.912105,31.5 143.278322,31.7714817 142.850586,32.3144531 C142.422849,32.8574246 142.208984,33.6542916 142.208984,34.7050781 Z M150.587891,39 L150.587891,30.4335938 L151.988281,30.4335938 L151.988281,37.7988281 L155.615234,37.7988281 L155.615234,39 L150.587891,39 Z M164.058594,34.6347656 C164.058594,36.0488352 163.66602,37.1298791 162.880859,37.8779297 C162.095699,38.6259803 160.964851,39 159.488281,39 L157.091797,39 L157.091797,30.4335938 L159.740234,30.4335938 C161.103522,30.4335938 162.164059,30.8007776 162.921875,31.5351562 C163.679691,32.2695349 164.058594,33.3027277 164.058594,34.6347656 Z M162.582031,34.6816406 C162.582031,32.6308491 161.623056,31.6054688 159.705078,31.6054688 L158.492188,31.6054688 L158.492188,37.8222656 L159.488281,37.8222656 C161.550792,37.8222656 162.582031,36.7754011 162.582031,34.6816406 Z M174.330078,39 L173.474609,36.6210938 L170.199219,36.6210938 L169.361328,39 L167.884766,39 L171.089844,30.3984375 L172.613281,30.3984375 L175.818359,39 L174.330078,39 Z M173.105469,35.4140625 L172.302734,33.0820312 C172.24414,32.9257805 172.163086,32.6796892 172.05957,32.34375 C171.956054,32.0078108 171.884766,31.7617195 171.845703,31.6054688 C171.740234,32.0859399 171.585939,32.6113253 171.382812,33.1816406 L170.609375,35.4140625 L173.105469,35.4140625 Z M184.085938,39 L182.369141,39 L178.15625,32.1738281 L178.109375,32.1738281 L178.138672,32.5546875 C178.19336,33.2812536 178.220703,33.9453095 178.220703,34.546875 L178.220703,39 L176.949219,39 L176.949219,30.4335938 L178.648438,30.4335938 L182.849609,37.2246094 L182.884766,37.2246094 C182.876953,37.1347652 182.861328,36.80762 182.837891,36.2431641 C182.814453,35.6787081 182.802734,35.2382828 182.802734,34.921875 L182.802734,30.4335938 L184.085938,30.4335938 L184.085938,39 Z M193.314453,34.6347656 C193.314453,36.0488352 192.921879,37.1298791 192.136719,37.8779297 C191.351559,38.6259803 190.220711,39 188.744141,39 L186.347656,39 L186.347656,30.4335938 L188.996094,30.4335938 C190.359382,30.4335938 191.419918,30.8007776 192.177734,31.5351562 C192.935551,32.2695349 193.314453,33.3027277 193.314453,34.6347656 Z M191.837891,34.6816406 C191.837891,32.6308491 190.878916,31.6054688 188.960938,31.6054688 L187.748047,31.6054688 L187.748047,37.8222656 L188.744141,37.8222656 C190.806651,37.8222656 191.837891,36.7754011 191.837891,34.6816406 Z M199.671875,34.4179688 L200.644531,34.4179688 C201.296878,34.4179688 201.76953,34.2968762 202.0625,34.0546875 C202.35547,33.8124988 202.501953,33.4531274 202.501953,32.9765625 C202.501953,32.4921851 202.343752,32.1445323 202.027344,31.9335938 C201.710936,31.7226552 201.234378,31.6171875 200.597656,31.6171875 L199.671875,31.6171875 L199.671875,34.4179688 Z M199.671875,35.578125 L199.671875,39 L198.271484,39 L198.271484,30.4335938 L200.691406,30.4335938 C201.796881,30.4335938 202.615232,30.6406229 203.146484,31.0546875 C203.677737,31.4687521 203.943359,32.0937458 203.943359,32.9296875 C203.943359,33.9960991 203.388677,34.7558571 202.279297,35.2089844 L204.699219,39 L203.105469,39 L201.054688,35.578125 L199.671875,35.578125 Z M210.787109,39 L205.941406,39 L205.941406,30.4335938 L210.787109,30.4335938 L210.787109,31.6171875 L207.341797,31.6171875 L207.341797,33.9492188 L210.570312,33.9492188 L210.570312,35.1210938 L207.341797,35.1210938 L207.341797,37.8105469 L210.787109,37.8105469 L210.787109,39 Z M212.638672,39 L212.638672,30.4335938 L214.039062,30.4335938 L214.039062,37.7988281 L217.666016,37.7988281 L217.666016,39 L212.638672,39 Z M223.988281,39 L219.142578,39 L219.142578,30.4335938 L223.988281,30.4335938 L223.988281,31.6171875 L220.542969,31.6171875 L220.542969,33.9492188 L223.771484,33.9492188 L223.771484,35.1210938 L220.542969,35.1210938 L220.542969,37.8105469 L223.988281,37.8105469 L223.988281,39 Z M231.154297,39 L230.298828,36.6210938 L227.023438,36.6210938 L226.185547,39 L224.708984,39 L227.914062,30.3984375 L229.4375,30.3984375 L232.642578,39 L231.154297,39 Z M229.929688,35.4140625 L229.126953,33.0820312 C229.068359,32.9257805 228.987305,32.6796892 228.883789,32.34375 C228.780273,32.0078108 228.708985,31.7617195 228.669922,31.6054688 C228.564453,32.0859399 228.410157,32.6113253 228.207031,33.1816406 L227.433594,35.4140625 L229.929688,35.4140625 Z M238.712891,36.6738281 C238.712891,37.4355507 238.437503,38.033201 237.886719,38.4667969 C237.335935,38.9003928 236.576177,39.1171875 235.607422,39.1171875 C234.638667,39.1171875 233.845706,38.9667984 233.228516,38.6660156 L233.228516,37.3417969 C233.619143,37.5253915 234.034177,37.6699213 234.473633,37.7753906 C234.913088,37.8808599 235.322264,37.9335938 235.701172,37.9335938 C236.255862,37.9335938 236.665038,37.8281261 236.928711,37.6171875 C237.192384,37.4062489 237.324219,37.1230487 237.324219,36.7675781 C237.324219,36.447264 237.203126,36.1757824 236.960938,35.953125 C236.718749,35.7304676 236.218754,35.4667984 235.460938,35.1621094 C234.679684,34.8457015 234.128908,34.484377 233.808594,34.078125 C233.48828,33.671873 233.328125,33.1835966 233.328125,32.6132812 C233.328125,31.8984339 233.582029,31.3359396 234.089844,30.9257812 C234.597659,30.5156229 235.279293,30.3105469 236.134766,30.3105469 C236.955082,30.3105469 237.77148,30.4902326 238.583984,30.8496094 L238.138672,31.9921875 C237.376949,31.6718734 236.697269,31.5117188 236.099609,31.5117188 C235.646482,31.5117188 235.302736,31.6103506 235.068359,31.8076172 C234.833983,32.0048838 234.716797,32.2656234 234.716797,32.5898438 C234.716797,32.8125011 234.763671,33.0029289 234.857422,33.1611328 C234.951172,33.3193367 235.105468,33.4687493 235.320312,33.609375 C235.535157,33.7500007 235.921872,33.9355457 236.480469,34.1660156 C237.109378,34.4277357 237.570311,34.6718739 237.863281,34.8984375 C238.156251,35.1250011 238.371093,35.3808579 238.507812,35.6660156 C238.644532,35.9511733 238.712891,36.2871074 238.712891,36.6738281 Z M245.216797,39 L240.371094,39 L240.371094,30.4335938 L245.216797,30.4335938 L245.216797,31.6171875 L241.771484,31.6171875 L241.771484,33.9492188 L245,33.9492188 L245,35.1210938 L241.771484,35.1210938 L241.771484,37.8105469 L245.216797,37.8105469 L245.216797,39 Z" id="HOLDANDRELEASE" fill="#FFFFFF" fill-rule="nonzero"></path>
    </g>
</svg>