<?xml version="1.0" encoding="UTF-8"?>
<svg width="292px" height="188px" viewBox="0 0 292 188" version="1.1" xmlns="http://www.w3.org/2000/svg" xmlns:xlink="http://www.w3.org/1999/xlink">
    <!-- Generator: Sketch 52.5 (67469) - http://www.bohemiancoding.com/sketch -->
    <title>Group 11</title>
    <desc>Created with Sketch.</desc>
    <g id="Page-1" stroke="none" stroke-width="1" fill="none" fill-rule="evenodd" opacity="0.535807292">
        <g id="no-device" transform="translate(-52.000000, -312.000000)" stroke="#FFFFFF">
            <g id="Group-11" transform="translate(53.000000, 313.000000)">
                <path d="M44.5125759,258 L44.6253252,168.699603 L51.5550737,168.699603 C52.905464,168.699603 54,167.623426 54,166.293379 L54,132.407079 C54,131.078741 52.905464,130 51.5550737,130 L49.2627927,130 L28.7380746,130.000855 L26.4457936,130.000855 C25.0954033,130.000855 24,131.078741 24,132.407079 L24,166.293379 C24,167.623426 25.0954033,168.699603 26.4457936,168.699603 L33.3755421,168.699603 L33.518647,257.664924" id="Stroke-1"></path>
                <path d="M287.000847,130 L3.00000886,130 C1.35017522,130 0,128.64777 0,126.994 L0,10.0060004 C0,8.35308457 1.35017522,7 3.00000886,7 L287.000847,7 C288.650681,7 290,8.35308457 290,10.0060004 L290,126.994 C290,128.64777 288.650681,130 287.000847,130" id="Stroke-3"></path>
                <path d="M264.3956,0 L246.6044,0 C245.72324,0 245,0.48488045 245,1.07723863 L245,5.92276137 C245,6.51511955 245.72324,7 246.6044,7 L264.3956,7 C265.2776,7 266,6.51511955 266,5.92276137 L266,1.07723863 C266,0.48488045 265.2776,0 264.3956,0" id="Stroke-5"></path>
                <path d="M21.7084746,35 L270.291525,35 C271.234603,35 272,35.7628108 272,36.7027027 L272,96.2972973 C272,97.2371892 271.234603,98 270.291525,98 L21.7084746,98 C20.7653966,98 20,97.2371892 20,96.2972973 L20,36.7027027 C20,35.7628108 20.7653966,35 21.7084746,35 Z" id="Stroke-7"></path>
                <path d="M247.69155,54.2 L257.30845,54.2 L252.5,49.39155 L247.69155,54.2 Z M252.5,61 C247.8063,61 244,57.19455 244,52.5 C244,47.80545 247.8063,44 252.5,44 C257.19455,44 261,47.80545 261,52.5 C261,57.19455 257.19455,61 252.5,61 Z" id="Stroke-9"></path>
            </g>
        </g>
    </g>
</svg>