<svg xmlns="http://www.w3.org/2000/svg" width="74" height="78" fill="none"><g filter="url(#a)"><path fill="#181C27" d="M39.185 15.72a5.363 5.363 0 0 0-5.366 0L17.68 25.034A5.362 5.362 0 0 0 15 29.677v18.637a5.364 5.364 0 0 0 2.68 4.646l16.14 9.316a5.386 5.386 0 0 0 5.365 0l16.139-9.316a5.364 5.364 0 0 0 2.68-4.646V29.68a5.362 5.362 0 0 0-2.68-4.64l-16.14-9.322Z"/></g><defs><filter id="a" width="73.004" height="77.992" x="0" y="0" color-interpolation-filters="sRGB" filterUnits="userSpaceOnUse"><feFlood flood-opacity="0" result="BackgroundImageFix"/><feColorMatrix in="SourceAlpha" result="hardAlpha" values="0 0 0 0 0 0 0 0 0 0 0 0 0 0 0 0 0 0 127 0"/><feOffset/><feGaussianBlur stdDeviation="7.5"/><feComposite in2="hardAlpha" operator="out"/><feColorMatrix values="0 0 0 0 0.231373 0 0 0 0 0.878431 0 0 0 0 1 0 0 0 0.5 0"/><feBlend in2="BackgroundImageFix" result="effect1_dropShadow_3110_11137"/><feBlend in="SourceGraphic" in2="effect1_dropShadow_3110_11137" result="shape"/></filter></defs></svg>