<svg width="34" height="33" viewBox="0 0 34 33" fill="none" xmlns="http://www.w3.org/2000/svg">
<path d="M24.109 8C29.027 8 33.013 11.98 33.013 16.892C33.013 21.803 29.027 25.751 24.109 25.751H8.87203C6.51703 25.757 4.25703 24.826 2.59103 23.163C0.926029 21.5 -0.00597121 19.243 2.87914e-05 16.892C2.87914e-05 11.98 3.95303 8 8.87203 8H24.109ZM17.776 16.892C17.776 20.423 20.573 23.184 24.108 23.184C27.643 23.184 30.44 20.423 30.44 16.892C30.44 13.361 27.611 10.569 24.108 10.569C20.573 10.569 17.776 13.393 17.776 16.892ZM15.236 16.892C15.236 14.42 16.233 12.174 17.84 10.569H16.49C12.954 10.569 10.158 13.393 10.158 16.892C10.158 20.39 12.826 23.055 16.234 23.184H17.841C16.233 21.578 15.236 19.364 15.236 16.892ZM2.53903 16.892C2.53903 20.39 5.33603 23.183 8.87203 23.183H10.221C8.61403 21.578 7.61803 19.364 7.61803 16.892C7.61803 14.42 8.61403 12.174 10.221 10.569H8.87203C5.33603 10.569 2.53903 13.393 2.53903 16.892Z" fill="white"/>
</svg>
