<?xml version="1.0" encoding="UTF-8"?>
<svg width="222px" height="189px" viewBox="0 0 222 189" version="1.1" xmlns="http://www.w3.org/2000/svg" xmlns:xlink="http://www.w3.org/1999/xlink">
    <title>Group 71</title>
    <defs>
        <polygon id="path-1" points="0 0 11.1259369 0 11.1259369 11.1264045 0 11.1264045"></polygon>
    </defs>
    <g id="Page-1" stroke="none" stroke-width="1" fill="none" fill-rule="evenodd">
        <g id="101_3" transform="translate(-89.000000, -104.000000)">
            <g id="Group-69" transform="translate(89.670400, 104.364155)">
                <path d="M168.027488,106.071931 L124.088399,106.071931 L124.088399,105.497609 C124.088399,102.201301 126.818958,99.4356749 130.115266,99.4356749 L161.956203,99.4356749 C165.252511,99.4356749 168.027488,102.201301 168.027488,105.497609 L168.027488,106.071931 Z M124.088399,169.23481 L168.027488,169.23481 L168.027488,109.50539 L124.088399,109.50539 L124.088399,169.23481 Z M168.027488,178.651498 C168.027488,181.947027 165.252511,184.56693 161.956203,184.56693 L130.115266,184.56693 C126.818958,184.56693 124.088399,181.947027 124.088399,178.651498 L124.088399,172.66749 L168.027488,172.66749 L168.027488,178.651498 Z M161.821389,96.0029944 L130.066172,96.0029944 C124.869227,96.0029944 120.655718,100.215723 120.655718,105.412669 L120.655718,178.589936 C120.655718,183.787661 124.869227,188.00039 130.066172,188.00039 L161.821389,188.00039 C167.018335,188.00039 171.231843,183.787661 171.231843,178.589936 L171.231843,105.412669 C171.231843,100.215723 167.018335,96.0029944 161.821389,96.0029944 L161.821389,96.0029944 Z" id="Fill-1" fill="#484877"></path>
                <path d="M142.625497,180.448025 L149.033427,180.448025 C149.981018,180.448025 150.749378,179.679666 150.749378,178.732074 C150.749378,177.783704 149.981018,177.015345 149.033427,177.015345 L142.625497,177.015345 C141.677126,177.015345 140.908767,177.783704 140.908767,178.732074 C140.908767,179.679666 141.677126,180.448025 142.625497,180.448025" id="Fill-3" fill="#484877"></path>
                <path d="M189.081859,42.8640097 C189.081859,35.0705392 182.740167,28.7210544 174.945917,28.7210544 L35.2416667,28.7210544 C27.4481962,28.7210544 21.1065041,35.0705392 21.1065041,42.8640097 L21.1065041,141.326222 C21.1065041,149.119692 27.4481962,155.503465 35.2416667,155.503465 L90.6765341,155.503465 L90.6765341,171.237687 C90.6765341,178.621262 84.7291522,184.567086 77.3455773,184.567086 L51.4107217,184.567086 C50.4623511,184.567086 49.6939918,185.336224 49.6939918,186.283816 C49.6939918,187.231407 50.4623511,188.000545 51.4107217,188.000545 L114.168381,188.000545 C115.115972,188.000545 115.884332,187.231407 115.884332,186.283816 C115.884332,185.336224 115.115972,184.567086 114.168381,184.567086 L87.5189356,184.567086 C91.5578875,181.592616 94.1092146,176.694909 94.1092146,171.237687 L94.1092146,155.503465 L111.305346,155.503465 C112.252937,155.503465 113.021297,154.735105 113.021297,153.786735 C113.021297,152.839144 112.252937,152.070784 111.305346,152.070784 L35.2416667,152.070784 C29.3410409,152.070784 24.5391846,147.226847 24.5391846,141.326222 L24.5391846,139.026598 L111.272617,139.026598 C112.220987,139.026598 112.989347,138.258239 112.989347,137.309868 C112.989347,136.362277 112.220987,135.593918 111.272617,135.593918 L24.5391846,135.593918 L24.5391846,42.8640097 C24.5391846,36.9626046 29.3410409,32.1537349 35.2416667,32.1537349 L174.945917,32.1537349 C180.847323,32.1537349 185.649179,36.9626046 185.649179,42.8640097 L185.649179,141.326222 C185.649179,145.637138 183.083046,149.507768 179.11189,151.187093 C178.239109,151.557246 177.829992,152.564062 178.199366,153.436843 C178.56874,154.309624 179.575555,154.718741 180.449116,154.349367 C185.692818,152.130788 189.081859,147.019562 189.081859,141.326222 L189.081859,42.8640097 Z" id="Fill-5" fill="#484877"></path>
                <path d="M136.899739,72.1021871 C137.467826,72.3835032 138.143453,72.3297336 138.659329,71.9611393 L167.607618,51.2933637 C168.379095,50.7424205 168.558326,49.6709254 168.007383,48.899449 C167.45644,48.1279726 166.384945,47.9487407 165.613468,48.4996839 L137.502893,68.5697601 L117.114096,58.4603018 C116.514838,58.162621 115.797131,58.2405479 115.2758,58.660574 L86.7623432,81.596802 L69.5856933,69.6412552 C68.9404585,69.1923962 68.0731319,69.238373 67.4793289,69.7542492 L36.6833925,96.5073374 C35.9680234,97.1291941 35.8916551,98.2131575 36.5135118,98.9285265 C36.8532732,99.3197196 37.3301859,99.5199918 37.8102156,99.5199918 C38.2092014,99.5199918 38.6097458,99.3812819 38.934701,99.0991865 L68.7214838,73.2219968 L85.8560532,85.1479314 C86.4818063,85.5835428 87.3187414,85.5547099 87.9125445,85.0770179 L116.572504,62.0231203 L136.899739,72.1021871 Z" id="Fill-7" fill="#386FF9"></path>
                <path d="M132.931077,138.737334 C133.372923,138.737334 133.813989,138.567453 134.149854,138.230029 L141.254451,131.066988 L148.321643,133.907424 C148.940382,134.155231 149.647179,134.023535 150.133443,133.568442 L160.250694,124.115128 C160.943464,123.467555 160.98009,122.382033 160.332517,121.689263 C159.685724,120.996493 158.599423,120.960646 157.906653,121.60744 L148.588153,130.314214 L141.477322,127.456634 C140.837542,127.199475 140.105029,127.351433 139.618765,127.841593 L131.71308,135.811957 C131.045246,136.484467 131.049142,137.571547 131.722431,138.239381 C132.056737,138.571349 132.493907,138.737334 132.931077,138.737334" id="Fill-9" fill="#386FF9"></path>
                <path d="M43.5335577,101.494894 L43.5335577,121.633545 C43.5335577,122.581916 44.301917,123.350275 45.2502876,123.350275 C46.1978788,123.350275 46.9662382,122.581916 46.9662382,121.633545 L46.9662382,101.494894 C46.9662382,100.547302 46.1978788,99.7789429 45.2502876,99.7789429 C44.301917,99.7789429 43.5335577,100.547302 43.5335577,101.494894" id="Fill-11" fill-opacity="0.19" fill="#F3F3F3"></path>
                <path d="M56.5778993,90.9679028 L56.5778993,121.633701 C56.5778993,122.582072 57.3462587,123.350431 58.2946292,123.350431 C59.2422205,123.350431 60.0105798,122.582072 60.0105798,121.633701 L60.0105798,90.9679028 C60.0105798,90.0203116 59.2422205,89.2511729 58.2946292,89.2511729 C57.3462587,89.2511729 56.5778993,90.0203116 56.5778993,90.9679028" id="Fill-13" fill-opacity="0.19" fill="#F3F3F3"></path>
                <path d="M69.8513461,83.6447213 L69.8513461,121.634091 C69.8513461,122.581682 70.6197055,123.350821 71.5672967,123.350821 C72.5156672,123.350821 73.2840266,122.581682 73.2840266,121.634091 L73.2840266,83.6447213 C73.2840266,82.69713 72.5156672,81.9279914 71.5672967,81.9279914 C70.6197055,81.9279914 69.8513461,82.69713 69.8513461,83.6447213" id="Fill-15" fill-opacity="0.19" fill="#F3F3F3"></path>
                <path d="M83.1244033,93.0275111 L83.1244033,121.633701 C83.1244033,122.582072 83.8927626,123.350431 84.8411331,123.350431 C85.7887244,123.350431 86.5570837,122.582072 86.5570837,121.633701 L86.5570837,93.0275111 C86.5570837,92.0799199 85.7887244,91.3107812 84.8411331,91.3107812 C83.8927626,91.3107812 83.1244033,92.0799199 83.1244033,93.0275111" id="Fill-17" fill-opacity="0.19" fill="#F3F3F3"></path>
                <path d="M96.397928,87.3062731 L96.397928,121.633857 C96.397928,122.582228 97.1662873,123.350587 98.1146578,123.350587 C99.0622491,123.350587 99.8306084,122.582228 99.8306084,121.633857 L99.8306084,87.3062731 C99.8306084,86.3586818 99.0622491,85.5895432 98.1146578,85.5895432 C97.1662873,85.5895432 96.397928,86.3586818 96.397928,87.3062731" id="Fill-19" fill-opacity="0.19" fill="#F3F3F3"></path>
                <path d="M109.670985,77.6948457 L109.670985,121.633935 C109.670985,122.582306 110.439344,123.350665 111.387715,123.350665 C112.335306,123.350665 113.103666,122.582306 113.103666,121.633935 L113.103666,77.6948457 C113.103666,76.7464752 112.335306,75.9781158 111.387715,75.9781158 C110.439344,75.9781158 109.670985,76.7464752 109.670985,77.6948457" id="Fill-21" fill-opacity="0.19" fill="#F3F3F3"></path>
                <path d="M122.944432,75.1774168 L122.944432,86.6202045 C122.944432,87.5677958 123.712791,88.3361551 124.661162,88.3361551 C125.608753,88.3361551 126.377112,87.5677958 126.377112,86.6202045 L126.377112,75.1774168 C126.377112,74.2298255 125.608753,73.4606869 124.661162,73.4606869 C123.712791,73.4606869 122.944432,74.2298255 122.944432,75.1774168" id="Fill-23" fill-opacity="0.19" fill="#F3F3F3"></path>
                <path d="M136.217489,79.2967113 L136.217489,86.6195032 C136.217489,87.5678737 136.985848,88.3362331 137.934219,88.3362331 C138.88181,88.3362331 139.65017,87.5678737 139.65017,86.6195032 L139.65017,79.2967113 C139.65017,78.34912 138.88181,77.5799814 137.934219,77.5799814 C136.985848,77.5799814 136.217489,78.34912 136.217489,79.2967113" id="Fill-25" fill-opacity="0.19" fill="#F3F3F3"></path>
                <path d="M149.261831,72.8887034 L149.261831,86.6202045 C149.261831,87.5677958 150.03019,88.3361551 150.978561,88.3361551 C151.926152,88.3361551 152.694511,87.5677958 152.694511,86.6202045 L152.694511,72.8887034 C152.694511,71.9411121 151.926152,71.1727528 150.978561,71.1727528 C150.03019,71.1727528 149.261831,71.9411121 149.261831,72.8887034" id="Fill-27" fill-opacity="0.19" fill="#F3F3F3"></path>
                <path d="M162.535277,65.5655218 L162.535277,86.6198149 C162.535277,87.5674062 163.303637,88.3365448 164.252007,88.3365448 C165.199599,88.3365448 165.967958,87.5674062 165.967958,86.6198149 L165.967958,65.5655218 C165.967958,64.6179306 165.199599,63.8495712 164.252007,63.8495712 C163.303637,63.8495712 162.535277,64.6179306 162.535277,65.5655218" id="Fill-29" fill-opacity="0.19" fill="#F3F3F3"></path>
                <path d="M132.899127,161.568204 C133.847498,161.568204 134.615857,160.799845 134.615857,159.851475 L134.615857,142.687293 C134.615857,141.740481 133.847498,140.971342 132.899127,140.971342 C131.951536,140.971342 131.183177,141.740481 131.183177,142.687293 L131.183177,159.851475 C131.183177,160.799845 131.951536,161.568204 132.899127,161.568204" id="Fill-31" fill-opacity="0.19" fill="#F3F3F3"></path>
                <path d="M141.137716,135.707769 C140.190125,135.707769 139.420986,136.476128 139.420986,137.424499 L139.420986,159.851085 C139.420986,160.799456 140.190125,161.568594 141.137716,161.568594 C142.086087,161.568594 142.854446,160.799456 142.854446,159.851085 L142.854446,137.424499 C142.854446,136.476128 142.086087,135.707769 141.137716,135.707769" id="Fill-33" fill-opacity="0.19" fill="#F3F3F3"></path>
                <path d="M149.376383,136.394929 C148.428792,136.394929 147.659653,137.162509 147.659653,138.110879 L147.659653,159.851708 C147.659653,160.7993 148.428792,161.568438 149.376383,161.568438 C150.324754,161.568438 151.093113,160.7993 151.093113,159.851708 L151.093113,138.110879 C151.093113,137.162509 150.324754,136.394929 149.376383,136.394929" id="Fill-35" fill-opacity="0.19" fill="#F3F3F3"></path>
                <path d="M157.61505,130.215558 C156.66668,130.215558 155.89832,130.983918 155.89832,131.932288 L155.89832,159.851163 C155.89832,160.799533 156.66668,161.567893 157.61505,161.567893 C158.562641,161.567893 159.33178,160.799533 159.33178,159.851163 L159.33178,131.932288 C159.33178,130.983918 158.562641,130.215558 157.61505,130.215558" id="Fill-37" fill-opacity="0.19" fill="#F3F3F3"></path>
                <path d="M192.743411,167.403605 L189.081626,167.403605 C188.133255,167.403605 187.365675,168.171965 187.365675,169.120335 C187.365675,170.067927 188.133255,170.836286 189.081626,170.836286 L192.743411,170.836286 C193.691782,170.836286 194.460141,170.067927 194.460141,169.120335 C194.460141,168.171965 193.691782,167.403605 192.743411,167.403605" id="Fill-39" fill-opacity="0.318566809" fill="#484877"></path>
                <path d="M206.931954,167.403605 L202.812737,167.403605 C201.865146,167.403605 201.096786,168.171965 201.096786,169.120335 C201.096786,170.067927 201.865146,170.836286 202.812737,170.836286 L206.931954,170.836286 C207.880324,170.836286 208.648684,170.067927 208.648684,169.120335 C208.648684,168.171965 207.880324,167.403605 206.931954,167.403605" id="Fill-41" fill-opacity="0.318566809" fill="#484877"></path>
                <path d="M197.892354,172.781653 C196.944763,172.781653 196.176403,173.550013 196.176403,174.497604 L196.176403,178.15939 C196.176403,179.10776 196.944763,179.876119 197.892354,179.876119 C198.840724,179.876119 199.609084,179.10776 199.609084,178.15939 L199.609084,174.497604 C199.609084,173.550013 198.840724,172.781653 197.892354,172.781653" id="Fill-43" fill-opacity="0.318566809" fill="#484877"></path>
                <path d="M197.892354,158.592721 C196.944763,158.592721 196.176403,159.361081 196.176403,160.309451 L196.176403,164.428668 C196.176403,165.376259 196.944763,166.144618 197.892354,166.144618 C198.840724,166.144618 199.609084,165.376259 199.609084,164.428668 L199.609084,160.309451 C199.609084,159.361081 198.840724,158.592721 197.892354,158.592721" id="Fill-45" fill-opacity="0.318566809" fill="#484877"></path>
                <g id="Group-49" transform="translate(209.664071, 130.144801)">
                    <mask id="mask-2" fill="white">
                        <use xlink:href="#path-1"></use>
                    </mask>
                    <g id="Clip-48"></g>
                    <path d="M5.56320225,7.69372402 C4.38884368,7.69372402 3.43268047,6.73756081 3.43268047,5.56320225 C3.43268047,4.38884368 4.38884368,3.43268047 5.56320225,3.43268047 C6.73756081,3.43268047 7.69294475,4.38884368 7.69294475,5.56320225 C7.69294475,6.73756081 6.73756081,7.69372402 5.56320225,7.69372402 M5.56320225,0 C2.49521972,0 0,2.49521972 0,5.56320225 C0,8.63040551 2.49521972,11.1264045 5.56320225,11.1264045 C8.63040551,11.1264045 11.1264045,8.63040551 11.1264045,5.56320225 C11.1264045,2.49521972 8.63040551,0 5.56320225,0" id="Fill-47" fill="#484877" mask="url(#mask-2)"></path>
                </g>
                <path d="M6.68870064,166.48812 L3.02691504,166.48812 C2.07932379,166.48812 1.31096444,167.256479 1.31096444,168.20485 C1.31096444,169.152441 2.07932379,169.920801 3.02691504,169.920801 L6.68870064,169.920801 C7.63707116,169.920801 8.40543051,169.152441 8.40543051,168.20485 C8.40543051,167.256479 7.63707116,166.48812 6.68870064,166.48812" id="Fill-50" fill-opacity="0.318566809" fill="#484877"></path>
                <path d="M20.8772431,166.48812 L16.7580266,166.48812 C15.8104353,166.48812 15.042076,167.256479 15.042076,168.20485 C15.042076,169.152441 15.8104353,169.920801 16.7580266,169.920801 L20.8772431,169.920801 C21.8256137,169.920801 22.593973,169.152441 22.593973,168.20485 C22.593973,167.256479 21.8256137,166.48812 20.8772431,166.48812" id="Fill-52" fill-opacity="0.318566809" fill="#484877"></path>
                <path d="M11.8380331,171.866168 C10.8896625,171.866168 10.1213032,172.634527 10.1213032,173.582898 L10.1213032,177.243904 C10.1213032,178.192275 10.8896625,178.960634 11.8380331,178.960634 C12.7856243,178.960634 13.5539837,178.192275 13.5539837,177.243904 L13.5539837,173.582898 C13.5539837,172.634527 12.7856243,171.866168 11.8380331,171.866168" id="Fill-54" fill-opacity="0.318566809" fill="#484877"></path>
                <path d="M11.8380331,157.677937 C10.8896625,157.677937 10.1213032,158.445517 10.1213032,159.393888 L10.1213032,163.513104 C10.1213032,164.461475 10.8896625,165.229055 11.8380331,165.229055 C12.7856243,165.229055 13.5539837,164.461475 13.5539837,163.513104 L13.5539837,159.393888 C13.5539837,158.445517 12.7856243,157.677937 11.8380331,157.677937" id="Fill-56" fill-opacity="0.318566809" fill="#484877"></path>
                <path d="M35.523918,12.472514 L39.1857036,12.472514 C40.1332948,12.472514 40.9016542,11.7041546 40.9016542,10.7557841 C40.9016542,9.80819285 40.1332948,9.0398335 39.1857036,9.0398335 L35.523918,9.0398335 C34.5755474,9.0398335 33.8071881,9.80819285 33.8071881,10.7557841 C33.8071881,11.7041546 34.5755474,12.472514 35.523918,12.472514" id="Fill-58" fill-opacity="0.318566809" fill="#484877"></path>
                <path d="M25.4543582,12.472514 C26.4027288,12.472514 27.1710881,11.7041546 27.1710881,10.7557841 C27.1710881,9.80819285 26.4027288,9.0398335 25.4543582,9.0398335 L21.3351417,9.0398335 C20.3875504,9.0398335 19.6191911,9.80819285 19.6191911,10.7557841 C19.6191911,11.7041546 20.3875504,12.472514 21.3351417,12.472514 L25.4543582,12.472514 Z" id="Fill-60" fill-opacity="0.318566809" fill="#484877"></path>
                <path d="M30.3745855,7.09446607 C31.3221768,7.09446607 32.0913154,6.32610672 32.0913154,5.37851547 L32.0913154,1.71672987 C32.0913154,0.768359352 31.3221768,0 30.3745855,0 C29.4269943,0 28.6578557,0.768359352 28.6578557,1.71672987 L28.6578557,5.37851547 C28.6578557,6.32610672 29.4269943,7.09446607 30.3745855,7.09446607" id="Fill-62" fill-opacity="0.32" fill="#484877"></path>
                <path d="M30.3745855,21.2833982 C31.3221768,21.2833982 32.0913154,20.5150389 32.0913154,19.5666683 L32.0913154,15.4474518 C32.0913154,14.4998605 31.3221768,13.7315012 30.3745855,13.7315012 C29.4269943,13.7315012 28.6578557,14.4998605 28.6578557,15.4474518 L28.6578557,19.5666683 C28.6578557,20.5150389 29.4269943,21.2833982 30.3745855,21.2833982" id="Fill-65" fill-opacity="0.318566809" fill="#484877"></path>
                <path d="M5.56320225,35.4225351 C4.38884368,35.4225351 3.43268047,34.4663718 3.43268047,33.2920133 C3.43268047,32.1176547 4.38884368,31.1614915 5.56320225,31.1614915 C6.73756081,31.1614915 7.69372402,32.1176547 7.69372402,33.2920133 C7.69372402,34.4663718 6.73756081,35.4225351 5.56320225,35.4225351 M5.56320225,27.728811 C2.49521972,27.728811 0,30.22481 0,33.2920133 C0,36.3599958 2.49521972,38.8552155 5.56320225,38.8552155 C8.63118478,38.8552155 11.1264045,36.3599958 11.1264045,33.2920133 C11.1264045,30.22481 8.63118478,27.728811 5.56320225,27.728811" id="Fill-67" fill="#484877"></path>
            </g>
        </g>
    </g>
</svg>