<?xml version="1.0" encoding="UTF-8"?>
<svg width="213px" height="206px" viewBox="0 0 213 206" version="1.1" xmlns="http://www.w3.org/2000/svg" xmlns:xlink="http://www.w3.org/1999/xlink">
    <title>Group 114</title>
    <defs>
        <polygon id="path-1" points="0 0 3.10206358 0 3.10206358 6.77852593 0 6.77852593"></polygon>
        <polygon id="path-3" points="0 0 9.88184246 0 9.88184246 9.88064696 0 9.88064696"></polygon>
        <polygon id="path-5" points="0 0 125.460863 0 125.460863 27.5689659 0 27.5689659"></polygon>
    </defs>
    <g id="Page-1" stroke="none" stroke-width="1" fill="none" fill-rule="evenodd">
        <g id="101_5" transform="translate(-99.000000, -64.000000)">
            <g id="Group-114" transform="translate(99.647994, 64.000000)">
                <g id="Group-9" opacity="0.32" transform="translate(1.953381, 153.781700)" fill="#494977">
                    <path d="M4.82543224,10.9725733 L1.55103179,10.9725733 C0.689347462,10.9725733 0,10.2832259 0,9.42154155 C0,8.55985722 0.689347462,7.87050976 1.55103179,7.87050976 L4.82543224,7.87050976 C5.68711656,7.87050976 6.37588957,8.55985722 6.37588957,9.42154155 C6.37588957,10.2832259 5.68711656,10.9725733 4.82543224,10.9725733" id="Fill-1"></path>
                    <path d="M17.5206849,10.9725733 L13.8441651,10.9725733 C12.9824808,10.9725733 12.2931333,10.2832259 12.2931333,9.42154155 C12.2931333,8.55985722 12.9824808,7.87050976 13.8441651,7.87050976 L17.5206849,7.87050976 C18.3823692,7.87050976 19.0717167,8.55985722 19.0717167,9.42154155 C19.0717167,10.2832259 18.3249236,10.9725733 17.5206849,10.9725733" id="Fill-3"></path>
                    <path d="M9.42108199,19.0721762 C8.55939766,19.0721762 7.8700502,18.3828288 7.8700502,17.5211445 L7.8700502,14.246744 C7.8700502,13.3850597 8.55939766,12.6957122 9.42108199,12.6957122 C10.2827663,12.6957122 10.9715393,13.3850597 10.9715393,14.246744 L10.9715393,17.5211445 C10.9715393,18.3828288 10.2827663,19.0721762 9.42108199,19.0721762" id="Fill-5"></path>
                    <path d="M9.42108199,6.77858338 C8.55939766,6.77858338 7.8700502,6.08981037 7.8700502,5.22812605 L7.8700502,1.55103179 C7.8700502,0.689347462 8.55939766,0 9.42108199,0 C10.2827663,0 10.9715393,0.689347462 10.9715393,1.55103179 L10.9715393,5.22812605 C10.9715393,6.08981037 10.2827663,6.77858338 9.42108199,6.77858338" id="Fill-7"></path>
                </g>
                <g id="Group-18" opacity="0.32" transform="translate(193.190086, 93.119353)" fill="#494977">
                    <path d="M4.82485778,10.9719989 L1.55045733,10.9719989 C0.688773006,10.9719989 0,10.2826514 0,9.42096709 C0,8.55928277 0.688773006,7.8699353 1.55045733,7.8699353 L4.82485778,7.8699353 C5.68654211,7.8699353 6.37588957,8.55928277 6.37588957,9.42096709 C6.37588957,10.2826514 5.62909649,10.9719989 4.82485778,10.9719989" id="Fill-10"></path>
                    <path d="M17.4628946,10.9719989 L13.7869492,10.9719989 C12.9252649,10.9719989 12.235343,10.2826514 12.235343,9.42096709 C12.235343,8.55928277 12.9252649,7.8699353 13.7869492,7.8699353 L17.4628946,7.8699353 C18.3245789,7.8699353 19.0139264,8.55928277 19.0139264,9.42096709 C19.0139264,10.2826514 18.3245789,10.9719989 17.4628946,10.9719989" id="Fill-12"></path>
                    <path d="M9.42050753,19.0143859 C8.5588232,19.0143859 7.86947574,18.3250385 7.86947574,17.4633542 L7.86947574,14.1889537 C7.86947574,13.3272694 8.5588232,12.6379219 9.42050753,12.6379219 C10.2821919,12.6379219 10.9715393,13.3272694 10.9715393,14.1889537 L10.9715393,17.4633542 C10.9146682,18.3250385 10.2247462,19.0143859 9.42050753,19.0143859" id="Fill-14"></path>
                    <path d="M9.42050753,6.77858338 C8.5588232,6.77858338 7.86947574,6.08923592 7.86947574,5.22755159 L7.86947574,1.55103179 C7.86947574,0.689347462 8.5588232,0 9.42050753,0 C10.2821919,0 10.9715393,0.689347462 10.9715393,1.55103179 L10.9715393,5.22755159 C10.9146682,6.08923592 10.2247462,6.77858338 9.42050753,6.77858338" id="Fill-16"></path>
                </g>
                <g id="Group-28" opacity="0.32" transform="translate(67.958630, 0.000000)">
                    <path d="M4.82485778,10.9147256 L1.55045733,10.9147256 C0.688773006,10.9147256 0,10.2253781 0,9.36369381 C0,8.50200948 0.688773006,7.81266202 1.55045733,7.81266202 L4.82485778,7.81266202 C5.68654211,7.81266202 6.37588957,8.50200948 6.37588957,9.36369381 C6.37588957,10.2253781 5.68654211,10.9147256 4.82485778,10.9147256" id="Fill-19" fill="#494977"></path>
                    <path d="M17.4628946,10.9147256 L13.7869492,10.9147256 C12.9252649,10.9147256 12.235343,10.2253781 12.235343,9.36369381 C12.235343,8.50200948 12.9252649,7.81266202 13.7869492,7.81266202 L17.4628946,7.81266202 C18.3245789,7.81266202 19.0139264,8.50200948 19.0139264,9.36369381 C19.0139264,10.2253781 18.3245789,10.9147256 17.4628946,10.9147256" id="Fill-21" fill="#494977"></path>
                    <path d="M9.42050753,19.0146157 C8.5588232,19.0146157 7.86947574,18.3252683 7.86947574,17.4635839 L7.86947574,14.1891835 C7.86947574,13.3274992 8.5588232,12.6381517 9.42050753,12.6381517 C10.2821919,12.6381517 10.9715393,13.3274992 10.9715393,14.1891835 L10.9715393,17.4635839 C10.9715393,18.3252683 10.2821919,19.0146157 9.42050753,19.0146157" id="Fill-23" fill="#494977"></path>
                    <g id="Group-27" transform="translate(7.869476, 0.000000)">
                        <mask id="mask-2" fill="white">
                            <use xlink:href="#path-1"></use>
                        </mask>
                        <g id="Clip-26"></g>
                        <path d="M1.55103179,6.77852593 C0.689347462,6.77852593 0,6.08917847 0,5.22749414 L0,1.55097434 C0,0.689290017 0.689347462,-5.74456219e-05 1.55103179,-5.74456219e-05 C2.41271612,-5.74456219e-05 3.10206358,0.689290017 3.10206358,1.55097434 L3.10206358,5.22749414 C3.10206358,6.08917847 2.41271612,6.77852593 1.55103179,6.77852593" id="Fill-25" fill="#494977" mask="url(#mask-2)"></path>
                    </g>
                </g>
                <g id="Group-37" opacity="0.32" transform="translate(188.881664, 149.703291)" fill="#494977">
                    <path d="M4.82485778,10.9719989 L1.55045733,10.9719989 C0.688773006,10.9719989 0,10.2826514 0,9.42096709 C0,8.55928277 0.688773006,7.87050976 1.55045733,7.87050976 L4.82485778,7.87050976 C5.68654211,7.87050976 6.37588957,8.55928277 6.37588957,9.42096709 C6.37588957,10.2826514 5.68654211,10.9719989 4.82485778,10.9719989" id="Fill-29"></path>
                    <path d="M17.4628946,10.9719989 L13.7869492,10.9719989 C12.9252649,10.9719989 12.235343,10.2826514 12.235343,9.42096709 C12.235343,8.55928277 12.9252649,7.87050976 13.7869492,7.87050976 L17.4628946,7.87050976 C18.3245789,7.87050976 19.0139264,8.55928277 19.0139264,9.42096709 C19.0139264,10.2826514 18.3245789,10.9719989 17.4628946,10.9719989" id="Fill-31"></path>
                    <path d="M9.42050753,19.0143859 C8.5588232,19.0143859 7.86947574,18.3250385 7.86947574,17.4633542 L7.86947574,14.1895282 C7.86947574,13.3278438 8.5588232,12.6379219 9.42050753,12.6379219 C10.2821919,12.6379219 10.9715393,13.3278438 10.9715393,14.1895282 L10.9715393,17.4633542 C10.9715393,18.3250385 10.2821919,19.0143859 9.42050753,19.0143859" id="Fill-33"></path>
                    <path d="M9.42050753,6.77858338 C8.5588232,6.77858338 7.86947574,6.08923592 7.86947574,5.22755159 L7.86947574,1.55103179 C7.86947574,0.689347462 8.5588232,0 9.42050753,0 C10.2821919,0 10.9715393,0.689347462 10.9715393,1.55103179 L10.9715393,5.22755159 C10.9715393,6.08923592 10.2821919,6.77858338 9.42050753,6.77858338" id="Fill-35"></path>
                </g>
                <g id="Group-40" transform="translate(0.000000, 123.910206)">
                    <mask id="mask-4" fill="white">
                        <use xlink:href="#path-3"></use>
                    </mask>
                    <g id="Clip-39"></g>
                    <path d="M4.94043837,2.98717234 C3.90641718,2.98717234 3.04473285,3.84885666 3.04473285,4.88287786 C3.04473285,5.91689905 3.90641718,6.77858338 4.94043837,6.77858338 C5.97445956,6.77858338 6.83614389,5.91689905 6.83614389,4.88287786 C6.83614389,3.84885666 6.03133073,2.98717234 4.94043837,2.98717234 M4.94043837,9.88064696 C2.18304852,9.88064696 -0.000459564975,7.64026771 -0.000459564975,4.94032348 C-0.000459564975,2.18293363 2.24049414,0 4.94043837,0 C7.69782822,0 9.88076185,2.24037925 9.88076185,4.94032348 C9.93820747,7.64026771 7.69782822,9.88064696 4.94043837,9.88064696" id="Fill-38" fill="#494977" mask="url(#mask-4)"></path>
                </g>
                <path d="M111.846511,15.050638 C110.81249,15.050638 109.950805,15.9123224 109.950805,16.9463436 C109.950805,17.9803648 110.81249,18.8420491 111.846511,18.8420491 C112.880532,18.8420491 113.742216,17.9803648 113.742216,16.9463436 C113.742216,15.9123224 112.880532,15.050638 111.846511,15.050638 M111.846511,21.9441127 C109.089121,21.9441127 106.906187,19.7037334 106.906187,17.0037892 C106.906187,14.2463993 109.146567,12.0634657 111.846511,12.0634657 C114.603901,12.0634657 116.787409,14.303845 116.787409,17.0037892 C116.787409,19.7037334 114.603901,21.9441127 111.846511,21.9441127" id="Fill-41" fill="#494977"></path>
                <path d="M177.449526,168.086004 C176.415505,168.086004 175.55382,168.947689 175.55382,169.98171 C175.55382,171.015731 176.415505,171.877416 177.449526,171.877416 C178.483547,171.877416 179.345231,171.015731 179.345231,169.98171 C179.345231,168.889669 178.483547,168.086004 177.449526,168.086004 M177.449526,174.921459 C174.692136,174.921459 172.509202,172.681654 172.509202,169.98171 C172.509202,167.22432 174.749582,165.041387 177.449526,165.041387 C180.206916,165.041387 182.389849,167.281766 182.389849,169.98171 C182.389849,172.681654 180.14947,174.921459 177.449526,174.921459" id="Fill-43" fill="#494977"></path>
                <g id="Group-47" transform="translate(33.438112, 178.431034)">
                    <mask id="mask-6" fill="white">
                        <use xlink:href="#path-5"></use>
                    </mask>
                    <g id="Clip-46"></g>
                    <path d="M64.3342213,27.5690808 C40.6091794,27.5690808 17.9181588,18.722455 0.512135367,2.69512653 C-0.119766474,2.12067031 -0.177212096,1.14409474 0.397244123,0.511618445 C0.971700342,-0.119708939 1.94827591,-0.177154561 2.58017775,0.397301657 C19.4691906,15.9076196 41.4139926,24.4670172 64.3342213,24.4670172 C75.2488894,24.4670172 85.9343495,22.5713117 96.0442045,18.7799007 C105.80996,15.160252 114.886368,9.87582926 122.928756,3.15469151 C123.561232,2.63768091 124.537233,2.69512653 125.111689,3.32702837 C125.6287,3.95835576 125.571829,4.93550578 124.939352,5.509962 C116.609737,12.4608822 107.303546,17.9182163 97.193117,21.6521817 C86.6805682,25.6159297 75.6510088,27.5690808 64.3342213,27.5690808" id="Fill-45" fill="#494977" mask="url(#mask-6)"></path>
                </g>
                <path d="M183.538532,77.8963781 C182.964076,77.8963781 182.38962,77.5517044 182.102392,76.9772482 C178.426446,68.1306224 173.428103,59.9158985 167.16653,52.5628589 C160.962403,45.2672649 153.666809,39.0631378 145.566976,34.0653687 C144.820757,33.6058037 144.648421,32.6866737 145.049965,31.9398806 C145.510105,31.1930876 146.42866,31.0207507 147.175453,31.4228701 C155.563089,36.592976 163.087891,43.0268857 169.522375,50.5522621 C176.013156,58.1350842 181.183262,66.5795906 184.974673,75.7708901 C185.319921,76.5751288 184.917227,77.4368132 184.171008,77.7814869 C183.940651,77.8389325 183.768315,77.8963781 183.538532,77.8963781" id="Fill-48" fill="#494977"></path>
                <path d="M5.05544451,113.282651 C4.19376018,113.282651 3.50441272,112.593304 3.50441272,111.73162 C3.50441272,77.1493553 22.4034479,45.3819264 52.8496274,28.8375873 C53.596995,28.4354679 54.5161249,28.722696 54.9182443,29.4694891 C55.3203636,30.2162822 55.0331355,31.1354122 54.285768,31.5375315 C24.816164,47.5074144 6.54903067,78.2408221 6.54903067,111.73162 C6.60590184,112.593304 5.91712883,113.282651 5.05544451,113.282651" id="Fill-50" fill="#494977"></path>
                <path d="M100.012943,34.2377055 C89.3855025,34.2377055 79.1027362,36.3057479 69.4518717,40.3843871 C60.0882354,44.348135 51.7006001,49.9778059 44.4630262,57.2159543 C37.2248779,64.4541026 31.5946325,72.8411634 27.631459,82.2047998 C23.5522454,91.9131099 21.4847775,102.195876 21.4847775,112.765871 C21.4847775,123.393311 23.5522454,133.676077 27.631459,143.326367 C31.5946325,152.690578 37.2248779,161.077639 44.4630262,168.315212 C51.7006001,175.553935 60.0882354,181.183606 69.4518717,185.147354 C79.1601818,189.225993 89.4429481,191.293461 100.012943,191.293461 C110.640383,191.293461 120.922574,189.225993 130.574013,185.147354 C139.93765,181.183606 148.324711,175.553935 155.562859,168.315212 C162.801007,161.077639 168.430678,152.690578 172.394426,143.326367 C176.473065,133.618631 178.541108,123.335865 178.541108,112.765871 C178.541108,102.138431 176.473065,91.8556642 172.394426,82.2047998 C168.430678,72.8411634 162.801007,64.4541026 155.562859,57.2159543 C148.324711,49.9778059 139.93765,44.348135 130.574013,40.3843871 C120.922574,36.3057479 110.640383,34.2377055 100.012943,34.2377055 M100.012943,194.396099 C88.9833832,194.396099 78.2984975,192.213166 68.2455137,187.96219 C58.5372036,183.82553 49.805469,177.966651 42.2800926,170.498721 C34.8121617,163.03079 28.8952627,154.299055 24.8166235,144.533299 C20.5656475,134.480316 18.3821394,123.794856 18.3821394,112.765871 C18.3821394,101.736311 20.5656475,91.0514255 24.8166235,80.9984417 C28.9527083,71.2901316 34.8121617,62.5583971 42.2800926,55.0330206 C49.7480234,47.5650898 58.4797579,41.6481907 68.2455137,37.5695516 C78.2984975,33.3185756 88.9833832,31.1356419 100.012943,31.1356419 C111.042502,31.1356419 121.727388,33.3185756 131.780371,37.5695516 C141.488682,41.7056364 150.219842,47.5650898 157.745793,55.0330206 C165.213723,62.5009515 171.130622,71.232686 175.208687,80.9984417 C179.460238,91.0514255 181.643171,101.736311 181.643171,112.765871 C181.643171,123.794856 179.460238,134.480316 175.208687,144.533299 C171.073177,154.241035 165.213723,162.973344 157.745793,170.498721 C150.277862,177.966651 141.546127,183.88355 131.780371,187.96219 C121.727388,192.270611 111.042502,194.396099 100.012943,194.396099" id="Fill-52" fill="#494977"></path>
                <path d="M87.4899119,57.7329074 C85.9957513,57.7329074 84.7319476,58.9392655 84.7319476,60.4902973 C84.7319476,61.9838834 85.9388801,63.2476871 87.4899119,63.2476871 C88.983498,63.2476871 90.2473017,62.0413291 90.2473017,60.4902973 C90.2473017,58.9967111 89.0403692,57.7329074 87.4899119,57.7329074 M87.4899119,66.2923051 C84.2723826,66.2923051 81.6873296,63.7072521 81.6873296,60.4902973 C81.6873296,57.2733424 84.2723826,54.6882895 87.4899119,54.6882895 C90.7068667,54.6882895 93.2919197,57.2733424 93.2919197,60.4902973 C93.2919197,63.7072521 90.7068667,66.2923051 87.4899119,66.2923051" id="Fill-54" fill="#494977"></path>
                <path d="M87.4899119,79.5622437 C86.6282276,79.5622437 85.9388801,78.8728963 85.9388801,78.0112119 L85.9388801,64.9710558 C85.9388801,64.1093714 86.6282276,63.420024 87.4899119,63.420024 C88.3515962,63.420024 89.0403692,64.1093714 89.0403692,64.9710558 L89.0403692,78.0112119 C89.0403692,78.8728963 88.3515962,79.5622437 87.4899119,79.5622437" id="Fill-56" fill="#494977"></path>
                <path d="M103.91913,47.5074144 C102.425544,47.5074144 101.16174,48.7137724 101.16174,50.2648042 C101.16174,51.7583904 102.368098,53.0221941 103.91913,53.0221941 C105.412716,53.0221941 106.67652,51.815836 106.67652,50.2648042 C106.67652,48.7712181 105.412716,47.5074144 103.91913,47.5074144 M103.91913,56.066812 C100.702175,56.066812 98.1171221,53.4817591 98.1171221,50.2648042 C98.1171221,47.0478494 100.702175,44.4627964 103.91913,44.4627964 C107.136085,44.4627964 109.721138,47.0478494 109.721138,50.2648042 C109.721138,53.4817591 107.136085,56.066812 103.91913,56.066812" id="Fill-58" fill="#494977"></path>
                <path d="M103.91913,79.5622437 C103.057446,79.5622437 102.368098,78.8728963 102.368098,78.0112119 L102.368098,54.7457351 C102.368098,53.8840508 103.057446,53.1947033 103.91913,53.1947033 C104.780814,53.1947033 105.470162,53.8840508 105.470162,54.7457351 L105.470162,78.0112119 C105.412716,78.8728963 104.780814,79.5622437 103.91913,79.5622437" id="Fill-60" fill="#494977"></path>
                <path d="M103.91913,155.045733 C102.425544,155.045733 101.16174,156.252091 101.16174,157.803123 C101.16174,159.296709 102.368098,160.560513 103.91913,160.560513 C105.412716,160.560513 106.67652,159.354155 106.67652,157.803123 C106.67652,156.252091 105.412716,155.045733 103.91913,155.045733 M103.91913,163.605131 C100.702175,163.605131 98.1171221,161.020078 98.1171221,157.803123 C98.1171221,154.586168 100.702175,152.001115 103.91913,152.001115 C107.136085,152.001115 109.721138,154.586168 109.721138,157.803123 C109.721138,161.020078 107.136085,163.605131 103.91913,163.605131" id="Fill-62" fill="#494977"></path>
                <path d="M103.91913,140.109872 C103.344674,140.109872 102.885109,140.3971 102.597881,140.856665 C102.597881,141.258784 102.540435,141.660904 102.368098,142.063023 L102.368098,153.264919 C102.368098,154.126603 103.057446,154.815951 103.91913,154.815951 C104.780814,154.815951 105.470162,154.126603 105.470162,153.264919 L105.470162,141.660904 C105.412716,140.799219 104.780814,140.109872 103.91913,140.109872" id="Fill-64" fill="#494977"></path>
                <path d="M87.4899119,164.639267 C85.9957513,164.639267 84.7319476,165.845625 84.7319476,167.396657 C84.7319476,168.947689 85.9388801,170.154047 87.4899119,170.154047 C88.983498,170.154047 90.2473017,168.947689 90.2473017,167.396657 C90.2473017,165.845625 89.0403692,164.639267 87.4899119,164.639267 M87.4899119,173.19809 C84.2723826,173.19809 81.6873296,170.613037 81.6873296,167.396657 C81.6873296,164.179702 84.2723826,161.594649 87.4899119,161.594649 C90.7068667,161.594649 93.2919197,164.179702 93.2919197,167.396657 C93.2919197,170.613037 90.7068667,173.19809 87.4899119,173.19809" id="Fill-66" fill="#494977"></path>
                <path d="M87.4899119,164.409255 C86.6282276,164.409255 85.9388801,163.719907 85.9388801,162.858223 L85.9388801,141.660789 C85.9388801,140.799104 86.6282276,140.109757 87.4899119,140.109757 C88.3515962,140.109757 89.0403692,140.799104 89.0403692,141.660789 L89.0403692,162.858223 C89.0403692,163.719907 88.3515962,164.409255 87.4899119,164.409255" id="Fill-68" fill="#494977"></path>
                <path d="M59.8010073,128.103507 C59.168531,128.103507 58.5940747,127.758833 58.3648667,127.127506 C57.9627474,126.09291 57.560628,125.002018 57.2159543,123.909977 C56.9861718,123.106312 57.4451623,122.244628 58.2499755,122.014271 C59.0542142,121.784489 59.9158985,122.244628 60.145681,123.048292 C60.4329091,124.082313 60.8350284,125.058889 61.1791277,126.035465 C61.4663558,126.840278 61.1222566,127.701962 60.3174434,128.046061 C60.2031266,128.103507 59.9733441,128.103507 59.8010073,128.103507" id="Fill-70" fill="#494977"></path>
                <path d="M72.2668221,144.99275 C71.9215739,144.99275 71.5774746,144.877858 71.2902465,144.648076 C67.4413898,141.546012 64.224435,137.869492 61.639382,133.675962 C61.1792426,132.929169 61.4095996,132.010039 62.1558182,131.550474 C62.9026113,131.090909 63.8223157,131.320692 64.2818806,132.067485 C66.6945968,135.973787 69.6817691,139.363079 73.2428232,142.292805 C73.8752995,142.809816 73.9901907,143.786392 73.4731801,144.475739 C73.185952,144.820413 72.7263871,144.99275 72.2668221,144.99275" id="Fill-72" fill="#494977"></path>
                <path d="M112.593189,151.714002 C111.961287,151.714002 111.386831,151.311883 111.157049,150.737427 C110.86982,149.932613 111.27194,149.070929 112.076753,148.783701 C121.49726,145.336964 129.252419,138.443489 133.848069,129.482547 C134.250189,128.735753 135.169893,128.448525 135.916686,128.793199 C136.662905,129.195318 136.950133,130.113874 136.606033,130.861241 C131.665136,140.512106 123.33552,147.865146 113.167645,151.599111 C112.938437,151.655982 112.7661,151.714002 112.593189,151.714002" id="Fill-74" fill="#494977"></path>
                <path d="M138.386503,121.325038 C138.329057,121.325038 138.214166,121.325038 138.099275,121.267593 C137.409927,121.09583 137.007808,120.291017 137.122699,119.429333 C137.582264,116.729389 137.812047,113.971999 137.812047,111.157163 C137.812047,107.13597 137.295036,103.172222 136.375906,99.3233653 C136.146124,98.5191266 136.548243,97.6574423 137.180145,97.4276598 C137.869492,97.1978773 138.55884,97.6574423 138.731177,98.461681 C139.765198,102.54032 140.282209,106.848742 140.282209,111.214609 C140.282209,114.201781 140.052426,117.188954 139.535416,120.11868 C139.535416,120.865474 138.960959,121.325038 138.386503,121.325038" id="Fill-76" fill="#494977"></path>
                <path d="M57.158164,117.533857 C56.9858271,117.533857 56.8134902,117.533857 56.6417278,117.418966 L43.1988779,112.708425 C42.5675505,112.478642 42.1648567,111.904186 42.1648567,111.272284 C42.1648567,96.5662052 47.7945276,82.6643648 58.0198483,72.0943703 C58.5943045,71.4624685 59.5708801,71.4624685 60.2033564,72.0369247 C60.8346838,72.6113809 60.8346838,73.5879565 60.2602276,74.2198583 C50.8391456,83.9856141 45.5547228,96.6810965 45.3243659,110.180818 L55.4928154,113.742446 C55.4347953,112.938207 55.4347953,112.076523 55.4347953,111.214839 C55.4347953,100.759736 59.2267808,90.6493062 66.1771266,82.8367016 C66.7515828,82.2047998 67.7281584,82.1473542 68.3600602,82.7218104 C68.9925365,83.2962666 69.0494077,84.2728422 68.4749515,84.904744 C62.0410418,92.200338 58.5368589,101.563974 58.5368589,111.272284 C58.5368589,112.765871 58.6523246,114.316902 58.7672158,115.810489 C58.824087,116.327499 58.5943045,116.84451 58.1927596,117.189183 C57.7906403,117.418966 57.5034122,117.533857 57.158164,117.533857" id="Fill-78" fill="#494977"></path>
                <path d="M67.2111478,157.688002 C66.9239197,157.688002 66.579246,157.573685 66.3494635,157.400774 C56.6417278,150.680211 49.403005,141.201683 45.4398316,130.114104 C45.1526035,129.310439 45.5547228,128.448755 46.3583871,128.161527 C47.1632002,127.874299 48.0248846,128.276418 48.3121127,129.080083 C51.988058,139.420294 59.0544439,148.554723 68.1308522,154.873741 C68.8201997,155.332732 68.9925365,156.309882 68.5329716,156.999229 C68.1877234,157.458794 67.6712872,157.688002 67.2111478,157.688002" id="Fill-80" fill="#494977"></path>
                <path d="M124.829566,175.783373 C124.427447,175.783373 124.025327,175.611036 123.680654,175.266937 L114.259572,164.926725 C113.914898,164.524031 113.800007,164.007021 113.914898,163.490584 C114.029215,162.972999 114.431334,162.57088 114.890899,162.398543 C118.510548,161.19276 122.014731,159.584282 125.346002,157.573685 C126.092795,157.113546 127.0125,157.400774 127.472065,158.090122 C127.931055,158.836915 127.643827,159.756619 126.95448,160.21561 C124.140219,161.882107 121.209917,163.318248 118.108428,164.524031 L125.231111,172.336636 C133.791083,168.488354 141.603113,162.685771 147.807815,155.563089 C154.29917,148.095158 159.182048,139.191086 161.823972,129.712559 C162.054329,128.907746 162.916013,128.448755 163.719678,128.677963 C164.524491,128.907746 164.983481,129.76943 164.754273,130.574243 C161.996309,140.512336 156.884223,149.875398 150.10564,157.630557 C143.326482,165.385716 134.82453,171.589843 125.461468,175.611036 C125.289131,175.725927 125.058774,175.783373 124.829566,175.783373" id="Fill-82" fill="#494977"></path>
                <path d="M138.443719,149.645615 C138.099045,149.645615 137.696926,149.531298 137.409698,149.24407 C136.77837,148.669614 136.72035,147.693038 137.294806,147.060562 C141.488911,142.464912 144.820757,137.237361 147.175453,131.492799 C149.875398,125.058889 151.254667,118.22286 151.368984,111.157049 C151.483875,103.057216 149.645615,95.2446113 146.026541,87.8915717 C145.624422,87.1447786 145.96967,86.2262231 146.715888,85.8235293 C147.462682,85.4214099 148.382386,85.7660837 148.783931,86.5134512 C152.632788,94.2686102 154.586513,102.598225 154.471047,111.157049 C154.356156,118.624979 152.920016,125.863702 150.047735,132.641711 C147.520702,138.673501 144.015944,144.246301 139.592631,149.071159 C139.247958,149.531298 138.845838,149.645615 138.443719,149.645615" id="Fill-84" fill="#494977"></path>
                <path d="M134.135297,91.9705555 L134.135297,91.9705555 C133.560841,91.9705555 133.101276,91.6833274 132.814048,91.2237624 C127.874299,82.7218104 120.06112,76.402792 110.812375,73.358174 C110.008136,73.0709459 109.548571,72.2092616 109.835799,71.4050229 C110.123027,70.6007842 110.984712,70.1412192 111.789525,70.4284473 C121.037695,73.4730653 128.907746,79.5623012 134.250189,87.6621339 L140.39687,78.987845 C133.733752,70.4858929 124.484433,63.9945376 114.202241,60.7201372 C113.397428,60.4903547 112.938437,59.5712248 113.225665,58.7669861 C113.454873,57.9627474 114.374578,57.5031824 115.178242,57.7904105 C126.438158,61.4094847 136.491142,68.5901874 143.556379,78.0112694 C143.959073,78.52828 143.959073,79.2750731 143.556379,79.7920837 L135.399101,91.281208 C135.111873,91.740773 134.652308,91.9705555 134.135297,91.9705555" id="Fill-86" fill="#494977"></path>
                <path d="M165.845395,112.765698 C164.983711,112.765698 164.294364,112.076351 164.294364,111.214666 C164.294364,94.7852186 158.205128,78.9876726 147.175568,66.8092008 C146.601112,66.1772989 146.659132,65.2007234 147.29046,64.6262672 C147.922361,64.0518109 148.898937,64.1092566 149.473393,64.7411584 C161.020538,77.4940864 167.396427,93.9809799 167.396427,111.157221 C167.396427,112.076351 166.70708,112.765698 165.845395,112.765698" id="Fill-88" fill="#494977"></path>
                <path d="M132.297497,54.400889 C132.010269,54.400889 131.780486,54.3434434 131.550129,54.1711065 C127.069371,51.5860535 122.35883,49.5180112 117.419081,48.024425 C116.614268,47.7946425 116.154703,46.9329582 116.38506,46.1287195 C116.614268,45.3244808 117.475952,44.8649158 118.280765,45.0946983 C123.450871,46.6457301 128.44864,48.8286637 133.101161,51.5286079 C133.847954,51.9307273 134.078311,52.9073028 133.675617,53.5966503 C133.331518,54.1136609 132.813933,54.400889 132.297497,54.400889" id="Fill-90" fill="#494977"></path>
                <path d="M43.1989927,73.8176815 C42.9117646,73.8176815 42.5670909,73.7027903 42.3373084,73.5304534 C41.647961,73.0134428 41.4756241,72.0943129 41.9926347,71.4049654 C53.194531,55.5499738 70.4856631,45.0948706 89.5576096,42.6821545 C90.4192939,42.5672632 91.166087,43.1417195 91.2809782,44.0034038 C91.3958695,44.8650881 90.8214133,45.6118812 89.9597289,45.7267724 C71.7494668,48.0245973 55.2051277,58.0201355 44.5202421,73.1857797 C44.1755683,73.6453447 43.7160033,73.8176815 43.1989927,73.8176815" id="Fill-92" fill="#494977"></path>
                <path d="M38.9483614,80.4814311 C38.7185789,80.4814311 38.4313508,80.4239855 38.2009939,80.3090943 C37.4542008,79.9069749 37.1669727,78.987845 37.5696665,78.2410519 C37.9137658,77.60915 38.2590139,77.0346938 38.6031132,76.402792 C39.005807,75.6559989 39.9823826,75.4262164 40.6717301,75.8283358 C41.4185231,76.2304551 41.6477312,77.2070307 41.2461863,77.8963781 C40.9009381,78.4708344 40.5568388,79.0452906 40.2696107,79.6771924 C40.0392538,80.194203 39.5228176,80.4814311 38.9483614,80.4814311" id="Fill-94" fill="#494977"></path>
                <path d="M37.1672025,141.546012 C36.5927462,141.546012 36.01829,141.201339 35.789082,140.684328 C31.4226403,131.435583 29.2397066,121.554936 29.2397066,111.27217 C29.2397066,102.942554 30.6758472,94.8427217 33.5481283,87.1450084 C33.8353564,86.3407697 34.7544863,85.9386503 35.5018539,86.2258784 C36.3055181,86.5131065 36.7076375,87.4322365 36.4204094,88.1790296 C33.6630195,95.5320692 32.2843246,103.287228 32.2843246,111.27217 C32.2843246,121.095371 34.4098126,130.573898 38.5458974,139.363079 C38.8905711,140.109872 38.603343,141.029002 37.7996788,141.373675 C37.6267674,141.488567 37.3969849,141.546012 37.1672025,141.546012" id="Fill-96" fill="#494977"></path>
                <path d="M98.2895739,180.321807 C78.068715,180.321807 58.9393229,171.532627 45.7842755,156.1372 C45.2098193,155.505298 45.3247105,154.528723 45.9560379,153.954267 C46.5885142,153.37981 47.5650898,153.494702 48.139546,154.126603 C60.7201372,168.832683 78.9872705,177.219743 98.2895739,177.219743 C103.976116,177.219743 109.606361,176.47295 115.063695,175.094255 C115.867934,174.864473 116.729619,175.381484 116.959401,176.185722 C117.188609,176.989961 116.672173,177.851645 115.867934,178.081428 C110.123372,179.575014 104.263344,180.321807 98.2895739,180.321807" id="Fill-98" fill="#494977"></path>
                <path d="M44.4056955,120.808373 C43.6014568,120.808373 42.9695549,121.440274 42.9695549,122.244513 C42.9695549,123.048177 43.6014568,123.680654 44.4056955,123.680654 C45.2093597,123.680654 45.841836,123.048177 45.841836,122.244513 C45.8992817,121.440274 45.2093597,120.808373 44.4056955,120.808373 M44.4056955,126.725272 C41.9349593,126.725272 39.8674914,124.714675 39.8674914,122.186493 C39.8674914,119.716906 41.8780881,117.648863 44.4056955,117.648863 C46.8758572,117.648863 48.886454,119.65946 48.886454,122.186493 C48.9433252,124.714675 46.9327284,126.725272 44.4056955,126.725272" id="Fill-100" fill="#494977"></path>
                <path d="M41.1311801,146.026656 C40.3269414,146.026656 39.6950396,146.659132 39.6950396,147.462796 C39.6950396,148.267035 40.3269414,148.898937 41.1311801,148.898937 C41.9348444,148.898937 42.5673207,148.267035 42.5673207,147.462796 C42.5673207,146.659132 41.8779732,146.026656 41.1311801,146.026656 M41.1311801,152.001001 C38.6610184,152.001001 36.6504216,149.990404 36.6504216,147.520817 C36.6504216,145.05008 38.6610184,142.982038 41.1311801,142.982038 C43.6013419,142.982038 45.6119387,144.992635 45.6119387,147.520817 C45.6119387,150.047849 43.6013419,152.001001 41.1311801,152.001001" id="Fill-102" fill="#494977"></path>
                <path d="M132.641941,151.94344 C131.837702,151.94344 131.2058,152.575916 131.2058,153.379581 C131.2058,154.183819 131.837702,154.815721 132.641941,154.815721 C133.44618,154.815721 134.078081,154.183819 134.078081,153.379581 C134.078081,152.575916 133.388734,151.94344 132.641941,151.94344 M132.641941,157.917785 C130.171779,157.917785 128.161182,155.907188 128.161182,153.379581 C128.161182,150.909419 130.171779,148.841951 132.641941,148.841951 C135.112103,148.841951 137.180145,150.852548 137.180145,153.379581 C137.122699,155.850317 135.112103,157.917785 132.641941,157.917785" id="Fill-104" fill="#494977"></path>
                <path d="M64.9711132,66.7516977 C64.1668745,66.7516977 63.5349727,67.3835996 63.5349727,68.1878383 C63.5349727,68.992077 64.1668745,69.6239788 64.9711132,69.6239788 C65.7747775,69.6239788 66.4072538,68.992077 66.4072538,68.1878383 C66.4072538,67.4410452 65.7747775,66.7516977 64.9711132,66.7516977 M64.9711132,72.7260424 C62.5009515,72.7260424 60.4903547,70.7154456 60.4903547,68.1878383 C60.4903547,65.7176765 62.5009515,63.6496341 64.9711132,63.6496341 C67.441275,63.6496341 69.5087429,65.6602309 69.5087429,68.1878383 C69.4518717,70.7154456 67.441275,72.7260424 64.9711132,72.7260424" id="Fill-106" fill="#494977"></path>
                <path d="M141.258784,57.6754044 C140.454545,57.6754044 139.822644,58.3073062 139.822644,59.1115449 C139.822644,59.9157836 140.454545,60.5476854 141.258784,60.5476854 C142.063023,60.5476854 142.694925,59.9157836 142.694925,59.1115449 C142.694925,58.3073062 142.063023,57.6754044 141.258784,57.6754044 M141.258784,63.649749 C138.788622,63.649749 136.72058,61.6391523 136.72058,59.1115449 C136.72058,56.6413832 138.731177,54.5733408 141.258784,54.5733408 C143.728946,54.5733408 145.739543,56.5839375 145.739543,59.1115449 C145.796988,61.5817066 143.728946,63.649749 141.258784,63.649749" id="Fill-108" fill="#494977"></path>
                <path d="M164.639267,120.291132 C163.835028,120.291132 163.203127,120.923034 163.203127,121.727273 C163.203127,122.531511 163.835028,123.163413 164.639267,123.163413 C165.442931,123.163413 166.075408,122.531511 166.075408,121.727273 C166.075408,120.923034 165.442931,120.291132 164.639267,120.291132 M164.639267,126.265477 C162.169105,126.265477 160.158509,124.25488 160.158509,121.727273 C160.158509,119.257111 162.169105,117.189069 164.639267,117.189069 C167.109429,117.189069 169.176897,119.199665 169.176897,121.727273 C169.176897,124.25488 167.1663,126.265477 164.639267,126.265477" id="Fill-110" fill="#494977"></path>
                <path d="M98.9790363,111.674289 C98.9790363,112.076408 98.6918081,112.363636 98.2896888,112.363636 L94.0381383,112.363636 C93.7509102,112.363636 93.5217022,112.133854 93.4636821,111.78918 L93.4636821,96.2214166 C93.4636821,95.9341885 93.694039,95.704406 94.0381383,95.6469604 L98.4620257,95.6469604 C98.7492538,95.6469604 98.9790363,95.8767429 99.0364819,96.2214166 L98.9790363,111.674289 Z M98.9790363,119.601785 C98.9790363,120.003904 98.6918081,120.291132 98.2896888,120.291132 L94.0381383,120.291132 C93.7509102,120.291132 93.5217022,120.06135 93.4636821,119.716676 L93.4636821,115.408254 C93.4636821,115.121026 93.694039,114.891244 94.0381383,114.833798 L98.4620257,114.833798 C98.7492538,114.833798 98.9790363,115.063581 99.0364819,115.408254 L98.9790363,119.601785 Z M116.787179,122.244283 C116.212723,121.440045 98.7492538,87.1450084 98.7492538,87.1450084 C98.7492538,87.1450084 97.3699844,84.6748466 96.279092,84.6748466 C95.1870508,84.6748466 93.8089303,87.1450084 93.8089303,87.1450084 C93.8089303,87.1450084 76.0582331,121.957055 75.5406481,122.761294 C74.9661919,123.565533 74.9661919,125.748466 77.7241562,125.748466 L114.834028,125.748466 C116.154703,125.633575 117.131853,124.542108 117.074407,123.220859 C117.074407,122.876185 116.959516,122.531511 116.787179,122.244283 L116.787179,122.244283 Z" id="Fill-112" fill="#D3860B"></path>
            </g>
        </g>
    </g>
</svg>