<?xml version="1.0" encoding="UTF-8"?>
<svg width="237px" height="230px" viewBox="0 0 237 230" version="1.1" xmlns="http://www.w3.org/2000/svg" xmlns:xlink="http://www.w3.org/1999/xlink">
    <title>Group 57</title>
    <g id="Page-1" stroke="none" stroke-width="1" fill="none" fill-rule="evenodd">
        <g id="101_5" transform="translate(-91.000000, -58.000000)">
            <g id="Group-57" transform="translate(91.151651, 58.250000)">
                <g id="Group-9" opacity="0.583824521" transform="translate(2.171031, 170.951341)" fill="#494977">
                    <path d="M5.36419708,12.1976733 L1.7242062,12.1976733 C0.766313869,12.1976733 0,11.4313594 0,10.4734671 C0,9.51557474 0.766313869,8.74926088 1.7242062,8.74926088 L5.36419708,8.74926088 C6.32208942,8.74926088 7.08840328,9.51557474 7.08840328,10.4734671 C7.08840328,11.4313594 6.32208942,12.1976733 5.36419708,12.1976733" id="Fill-1"></path>
                    <path d="M19.477208,12.1976733 L15.3902007,12.1976733 C14.4323084,12.1976733 13.6659945,11.4313594 13.6659945,10.4734671 C13.6659945,9.51557474 14.4323084,8.74926088 15.3902007,8.74926088 L19.477208,8.74926088 C20.4351004,8.74926088 21.2014142,9.51557474 21.2014142,10.4734671 C21.2014142,11.4313594 20.3712409,12.1976733 19.477208,12.1976733" id="Fill-3"></path>
                    <path d="M10.4729562,21.2016058 C9.51506387,21.2016058 8.74875,20.4352919 8.74875,19.4773996 L8.74875,15.8380473 C8.74875,14.880155 9.51506387,14.1132025 10.4729562,14.1132025 C11.4308485,14.1132025 12.1971624,14.880155 12.1971624,15.8380473 L12.1971624,19.4773996 C12.1971624,20.4352919 11.4308485,21.2016058 10.4729562,21.2016058" id="Fill-5"></path>
                    <path d="M10.4729562,7.5360583 C9.51506387,7.5360583 8.74875,6.76974443 8.74875,5.8118521 L8.74875,1.7242062 C8.74875,0.766313869 9.51506387,0 10.4729562,0 C11.4308485,0 12.1971624,0.766313869 12.1971624,1.7242062 L12.1971624,5.8118521 C12.1971624,6.76974443 11.4308485,7.5360583 10.4729562,7.5360583" id="Fill-7"></path>
                </g>
                <g id="Group-18" opacity="0.561192104" transform="translate(214.759845, 103.515976)" fill="#494977">
                    <path d="M5.36355848,12.1970347 L1.72356761,12.1970347 C0.765675274,12.1970347 0,11.4313594 0,10.4734671 C0,9.51557474 0.765675274,8.74926088 1.72356761,8.74926088 L5.36355848,8.74926088 C6.32145082,8.74926088 7.08776469,9.51557474 7.08776469,10.4734671 C7.08776469,11.4313594 6.25759133,12.1970347 5.36355848,12.1970347" id="Fill-10"></path>
                    <path d="M19.4126461,12.1970347 L15.3262774,12.1970347 C14.368385,12.1970347 13.6014326,11.4313594 13.6014326,10.4734671 C13.6014326,9.51557474 14.368385,8.74926088 15.3262774,8.74926088 L19.4126461,8.74926088 C20.3705384,8.74926088 21.1368523,9.51557474 21.1368523,10.4734671 C21.1368523,11.4313594 20.3705384,12.1970347 19.4126461,12.1970347" id="Fill-12"></path>
                    <path d="M10.4723176,21.1373632 C9.51442527,21.1373632 8.7481114,20.3716879 8.7481114,19.4137955 L8.7481114,15.7738047 C8.7481114,14.8159123 9.51442527,14.0489599 10.4723176,14.0489599 C11.4302099,14.0489599 12.1965238,14.8159123 12.1965238,15.7738047 L12.1965238,19.4137955 C12.1333029,20.3716879 11.3663505,21.1373632 10.4723176,21.1373632" id="Fill-14"></path>
                    <path d="M10.4723176,7.53541971 C9.51442527,7.53541971 8.7481114,6.76910584 8.7481114,5.8112135 L8.7481114,1.7242062 C8.7481114,0.766313869 9.51442527,0 10.4723176,0 C11.4302099,0 12.1965238,0.766313869 12.1965238,1.7242062 L12.1965238,5.8112135 C12.1333029,6.76910584 11.3663505,7.53541971 10.4723176,7.53541971" id="Fill-16"></path>
                </g>
                <g id="Group-27" opacity="0.698190598" transform="translate(75.545520, 0.000000)" fill="#494977">
                    <path d="M5.36419708,12.1334306 L1.7242062,12.1334306 C0.766313869,12.1334306 0,11.3671168 0,10.4092244 C0,9.4513321 0.766313869,8.68501823 1.7242062,8.68501823 L5.36419708,8.68501823 C6.32208942,8.68501823 7.08840328,9.4513321 7.08840328,10.4092244 C7.08840328,11.3671168 6.32208942,12.1334306 5.36419708,12.1334306" id="Fill-19"></path>
                    <path d="M19.4132847,12.1334306 L15.3262774,12.1334306 C14.368385,12.1334306 13.6020712,11.3671168 13.6020712,10.4092244 C13.6020712,9.4513321 14.368385,8.68501823 15.3262774,8.68501823 L19.4132847,8.68501823 C20.371177,8.68501823 21.1374909,9.4513321 21.1374909,10.4092244 C21.1374909,11.3671168 20.371177,12.1334306 19.4132847,12.1334306" id="Fill-21"></path>
                    <path d="M10.4729562,21.1373632 C9.51506387,21.1373632 8.74875,20.3710493 8.74875,19.413157 L8.74875,15.7731661 C8.74875,14.8152737 9.51506387,14.0489599 10.4729562,14.0489599 C11.4308485,14.0489599 12.1971624,14.8152737 12.1971624,15.7731661 L12.1971624,19.413157 C12.1971624,20.3710493 11.4308485,21.1373632 10.4729562,21.1373632" id="Fill-23"></path>
                    <path d="M10.4729562,7.53541971 C9.51506387,7.53541971 8.74875,6.76910584 8.74875,5.8112135 L8.74875,1.72356761 C8.74875,0.765675274 9.51506387,0 10.4729562,0 C11.4308485,0 12.1971624,0.765675274 12.1971624,1.72356761 L12.1971624,5.8112135 C12.1971624,6.76910584 11.4308485,7.53541971 10.4729562,7.53541971" id="Fill-25"></path>
                </g>
                <g id="Group-36" opacity="0.575852167" transform="translate(209.970383, 166.417573)" fill="#494977">
                    <path d="M5.36355848,12.1970347 L1.72356761,12.1970347 C0.765675274,12.1970347 0,11.4313594 0,10.4734671 C0,9.51557474 0.765675274,8.74926088 1.72356761,8.74926088 L5.36355848,8.74926088 C6.32145082,8.74926088 7.08776469,9.51557474 7.08776469,10.4734671 C7.08776469,11.4313594 6.32145082,12.1970347 5.36355848,12.1970347" id="Fill-28"></path>
                    <path d="M19.4126461,12.1970347 L15.3262774,12.1970347 C14.368385,12.1970347 13.6014326,11.4313594 13.6014326,10.4734671 C13.6014326,9.51557474 14.368385,8.74926088 15.3262774,8.74926088 L19.4126461,8.74926088 C20.3705384,8.74926088 21.1368523,9.51557474 21.1368523,10.4734671 C21.1368523,11.4313594 20.3705384,12.1970347 19.4126461,12.1970347" id="Fill-30"></path>
                    <path d="M10.4723176,21.1373632 C9.51442527,21.1373632 8.7481114,20.3716879 8.7481114,19.4137955 L8.7481114,15.7738047 C8.7481114,14.8159123 9.51442527,14.0489599 10.4723176,14.0489599 C11.4302099,14.0489599 12.1965238,14.8159123 12.1965238,15.7738047 L12.1965238,19.4137955 C12.1965238,20.3716879 11.4302099,21.1373632 10.4723176,21.1373632" id="Fill-32"></path>
                    <path d="M10.4723176,7.53541971 C9.51442527,7.53541971 8.7481114,6.76910584 8.7481114,5.8112135 L8.7481114,1.7242062 C8.7481114,0.766313869 9.51442527,0 10.4723176,0 C11.4302099,0 12.1965238,0.766313869 12.1965238,1.7242062 L12.1965238,5.8112135 C12.1965238,6.76910584 11.4302099,7.53541971 10.4723176,7.53541971" id="Fill-34"></path>
                </g>
                <path d="M5.49191606,141.065356 C4.34244526,141.065356 3.38455292,142.023248 3.38455292,143.172719 C3.38455292,144.322828 4.34244526,145.280721 5.49191606,145.280721 C6.64138686,145.280721 7.5992792,144.322828 7.5992792,143.172719 C7.5992792,142.023248 6.70524635,141.065356 5.49191606,141.065356 M5.49191606,148.728495 C2.42666058,148.728495 0,146.238613 0,143.236578 C0,140.171962 2.49052007,137.744662 5.49191606,137.744662 C8.55717153,137.744662 10.9838321,140.235183 10.9838321,143.236578 C11.0476916,146.238613 8.55717153,148.728495 5.49191606,148.728495" id="Fill-37" fill="#494977"></path>
                <path d="M124.33417,16.730803 C123.184699,16.730803 122.226807,17.6886953 122.226807,18.8388047 C122.226807,19.9882755 123.184699,20.9461678 124.33417,20.9461678 C125.483641,20.9461678 126.441533,19.9882755 126.441533,18.8388047 C126.441533,17.6886953 125.483641,16.730803 124.33417,16.730803 M124.33417,24.3939417 C121.268914,24.3939417 118.842254,21.9040602 118.842254,18.9020256 C118.842254,15.8374087 121.332774,13.4107481 124.33417,13.4107481 C127.399425,13.4107481 129.826086,15.9006296 129.826086,18.9020256 C129.826086,21.9040602 127.399425,24.3939417 124.33417,24.3939417" id="Fill-39" fill="#494977"></path>
                <path d="M197.261834,186.852737 C196.112363,186.852737 195.154471,187.81063 195.154471,188.9601 C195.154471,190.109571 196.112363,191.067464 197.261834,191.067464 C198.411305,191.067464 199.369197,190.109571 199.369197,188.9601 C199.369197,187.74677 198.411305,186.852737 197.261834,186.852737 M197.261834,194.452016 C194.196578,194.452016 191.769918,191.961496 191.769918,188.9601 C191.769918,185.894845 194.260438,183.468184 197.261834,183.468184 C200.327089,183.468184 202.75375,185.958704 202.75375,188.9601 C202.75375,191.961496 200.26323,194.452016 197.261834,194.452016" id="Fill-41" fill="#494977"></path>
                <path d="M108.688595,229 C82.3146259,229 57.0901278,219.165639 37.7407026,201.348841 C37.0382482,200.710246 36.9743887,199.624635 37.6129836,198.922181 C38.2515785,198.219726 39.3371898,198.155867 40.0396442,198.794462 C58.814334,216.036524 83.2086588,225.551588 108.688595,225.551588 C120.821898,225.551588 132.699763,223.444224 143.939033,219.229498 C154.795146,215.20635 164.884945,209.331277 173.825274,201.859717 C174.528367,201.284982 175.613339,201.348841 176.251934,202.051296 C176.82667,202.75375 176.763449,203.839361 176.060356,204.477956 C166.80073,212.204954 156.455493,218.271606 145.216223,222.422473 C133.529936,226.828777 121.268914,229 108.688595,229" id="Fill-43" fill="#494977"></path>
                <path d="M204.030684,86.5933394 C203.392089,86.5933394 202.753495,86.2101825 202.434197,85.5715876 C198.347828,75.7372263 192.791414,66.6053194 185.83073,58.4313048 C178.933905,50.3211496 170.82375,43.4243248 161.819562,37.8685493 C160.990027,37.3576734 160.798449,36.3359215 161.244827,35.5057482 C161.756341,34.6755748 162.777454,34.4839964 163.607628,34.9310128 C172.931113,40.6783668 181.296706,47.8306296 188.449608,56.1962226 C195.665091,64.6256752 201.412445,74.0130201 205.627172,84.2305383 C206.010967,85.1245712 205.563312,86.0824635 204.733777,86.4656204 C204.477701,86.5294799 204.286122,86.5933394 204.030684,86.5933394" id="Fill-45" fill="#494977"></path>
                <path d="M5.61944346,125.930529 C4.66155112,125.930529 3.89523725,125.164854 3.89523725,124.206962 C3.89523725,85.7635492 24.9050091,50.4492518 58.7505383,32.0570803 C59.5807117,31.6107025 60.6024635,31.93 61.0494799,32.7601733 C61.4964964,33.5897081 61.1771989,34.6114599 60.3470256,35.0584763 C27.5871077,52.8114143 7.27979017,86.9762409 7.27979017,124.206962 C7.34364966,125.164854 6.57733579,125.930529 5.61944346,125.930529" id="Fill-47" fill="#494977"></path>
                <path d="M111.17937,38.0601278 C99.365365,38.0601278 87.9345164,40.3590694 77.2061223,44.8930931 C66.7970255,49.2993978 57.4735401,55.5576278 49.4272445,63.6039234 C41.3809489,71.650219 35.122719,80.9737044 30.7164142,91.3828011 C26.1823905,102.175055 23.8834489,113.605903 23.8834489,125.356049 C23.8834489,137.170055 26.1823905,148.600903 30.7164142,159.329297 C35.122719,169.738394 41.3809489,179.06188 49.4272445,187.108175 C57.4735401,195.154471 66.7970255,201.412701 77.2061223,205.819005 C87.9983759,210.353029 99.4292244,212.651971 111.17937,212.651971 C122.993376,212.651971 134.423586,210.353029 145.152619,205.819005 C155.561715,201.412701 164.885201,195.154471 172.931496,187.108175 C180.977792,179.06188 187.236022,169.738394 191.642327,159.329297 C196.17635,148.537044 198.475292,137.106195 198.475292,125.356049 C198.475292,113.542044 196.17635,102.111195 191.642327,91.3828011 C187.236022,80.9737044 180.977792,71.650219 172.931496,63.6039234 C164.885201,55.5576278 155.561715,49.2993978 145.152619,44.8930931 C134.423586,40.3590694 122.993376,38.0601278 111.17937,38.0601278 M111.17937,216.100383 C98.9183485,216.100383 87.0404836,213.673723 75.865073,208.94812 C65.0728193,204.350237 55.366177,197.836569 47.0005839,189.534836 C38.6988504,181.233102 32.121323,171.52646 27.5872993,160.670347 C22.8616971,149.494936 20.4350365,137.617071 20.4350365,125.356049 C20.4350365,113.095027 22.8616971,101.217162 27.5872993,90.0417518 C32.1851825,79.2494982 38.6988504,69.5428559 47.0005839,61.1772628 C55.3023175,52.8755292 65.0089598,46.2980018 75.865073,41.7639781 C87.0404836,37.0383759 98.9183485,34.6117153 111.17937,34.6117153 C123.440392,34.6117153 135.318257,37.0383759 146.493668,41.7639781 C157.285922,46.3618613 166.991925,52.8755292 175.358157,61.1772628 C183.65989,69.4789964 190.237418,79.1856387 194.770803,90.0417518 C199.497044,101.217162 201.923704,113.095027 201.923704,125.356049 C201.923704,137.617071 199.497044,149.494936 194.770803,160.670347 C190.173558,171.4626 183.65989,181.169243 175.358157,189.534836 C167.056423,197.836569 157.349781,204.414097 146.493668,208.94812 C135.318257,213.737582 123.440392,216.100383 111.17937,216.100383" id="Fill-49" fill="#494977"></path>
                <path d="M157.203734,110.055443 L157.203734,111.672366 L157.203734,111.78412 C157.203734,112.118744 156.980226,112.397809 156.701799,112.732433 C154.63786,114.908126 148.000943,116.30154 140.583025,116.30154 C138.630841,116.30154 136.79041,116.190425 135.061095,115.967555 L135.061095,115.242111 L135.061095,115.130357 C135.061095,113.680747 135.061095,112.453367 134.838864,111.450135 C136.678656,111.672366 138.630841,111.78412 140.583025,111.78412 C146.216071,111.78412 153.299365,110.94756 157.203734,108.605194 C157.315488,108.996014 157.315488,109.441754 157.203734,110.055443 L157.203734,110.055443 Z M157.203734,117.640674 L157.203734,119.257596 L157.203734,119.36935 C157.203734,119.703974 156.980226,119.98304 156.701799,120.317663 C154.63786,122.493356 148.000943,123.887409 140.583025,123.887409 C138.630841,123.887409 136.79041,123.775655 135.061095,123.552785 L135.061095,123.217523 L135.061095,123.106407 C135.061095,121.488846 135.061095,120.150351 134.72711,118.979168 C136.56754,119.202038 138.519086,119.313792 140.583025,119.313792 C146.216071,119.313792 153.299365,118.477233 157.203734,116.134867 C157.315488,116.581245 157.315488,117.138738 157.203734,117.640674 L157.203734,117.640674 Z M157.203734,125.337658 L157.203734,126.95458 L157.203734,127.066334 C157.203734,127.400958 156.980226,127.680024 156.701799,128.014648 C154.63786,130.189702 148.000943,131.583754 140.583025,131.583754 C138.630841,131.583754 136.79041,131.472639 135.061095,131.249131 C135.061095,129.519816 135.061095,127.958451 134.670914,126.73171 C136.62246,126.95458 138.575283,127.066334 140.639221,127.066334 C146.272267,127.066334 153.355562,126.229775 157.259292,123.887409 C157.315488,124.222032 157.315488,124.723968 157.203734,125.337658 L157.203734,125.337658 Z M135.061095,92.7654868 L135.061095,92.0406816 C136.79041,91.8171734 138.630841,91.7060578 140.583025,91.7060578 C150.845245,91.7060578 157.09198,94.2712935 157.203734,96.2234781 L157.203734,96.3352322 C157.203734,96.6698559 156.980226,96.9489219 156.701799,97.282907 C155.084238,99.012222 149.228323,100.852652 140.583025,100.852652 C138.630841,100.852652 136.79041,100.740898 135.061095,100.518029 L135.061095,98.9560256 L135.061095,98.8449101 C135.061095,97.0044796 135.172849,95.5542306 134.670914,94.3268513 C134.949341,93.9366698 135.061095,93.3791765 135.061095,92.7654868 L135.061095,92.7654868 Z M157.203734,102.414017 L157.203734,104.031578 C157.203734,104.36684 156.980226,104.645268 156.701799,104.979891 C154.63786,107.154945 148.000943,108.549637 140.583025,108.549637 C138.630841,108.549637 136.79041,108.437883 135.061095,108.214374 L135.061095,107.099388 C135.061095,105.872008 135.061095,104.757022 134.949341,103.696954 C136.79041,103.920462 138.630841,104.031578 140.583025,104.031578 C146.216071,104.031578 153.299365,103.195019 157.203734,100.852652 C157.315488,101.29903 157.315488,101.800966 157.203734,102.414017 L157.203734,102.414017 Z M131.882808,131.304688 L131.882808,131.695508 L131.882808,133.034003 L131.882808,133.145757 C131.547546,135.376369 124.29694,137.886686 114.313786,137.886686 C104.329993,137.886686 97.0800254,135.431927 96.7447631,133.145757 L96.7447631,133.034003 L96.7447631,131.695508 L96.7447631,131.304688 L96.7447631,129.687766 C97.7486343,130.300817 99.0871292,130.914507 100.648494,131.304688 C101.373937,131.528197 102.266693,131.695508 103.214368,131.918378 C106.505047,132.643822 110.297662,133.034003 114.42554,133.034003 C118.32927,133.034003 122.344755,132.643822 125.524319,131.918378 C126.360878,131.695508 127.252995,131.528197 128.089555,131.304688 C129.650919,130.802753 130.990053,130.300817 132.105039,129.687766 C131.882808,130.077948 131.882808,130.691637 131.882808,131.304688 L131.882808,131.304688 Z M95.7970883,108.88426 L96.633009,108.772506 L96.633009,107.043191 L96.633009,105.426269 C98.083258,106.373944 100.036081,107.043191 102.489563,107.601323 C103.214368,107.824193 104.051566,107.935947 104.720175,108.103259 C104.831929,108.103259 105.055437,108.103259 105.055437,108.214374 C105.557373,108.326128 106.05867,108.437883 106.616802,108.437883 C108.959168,108.772506 111.636796,108.939818 114.202032,108.939818 C116.767906,108.939818 119.333142,108.71631 121.675508,108.437883 C122.177443,108.326128 122.679379,108.326128 123.237511,108.214374 C123.46038,108.214374 123.572134,108.214374 123.627692,108.103259 C124.576006,107.880389 125.245253,107.768635 125.858943,107.713077 C128.313063,107.099388 130.264609,106.373944 131.714858,105.538023 L131.714858,107.154945 L131.714858,108.88426 L131.714858,108.996014 C131.714858,109.33 131.603104,109.497311 131.324676,109.831935 L131.212922,109.943689 L131.101168,110.055443 C130.097936,111.059315 127.532061,112.118744 124.129628,112.844187 C123.293068,113.067057 122.512706,113.178811 121.675508,113.235007 C119.333142,113.568993 116.767906,113.736304 114.202032,113.736304 C111.525042,113.736304 109.070922,113.513435 106.728556,113.235007 C105.780242,113.123253 104.999241,112.899745 104.274435,112.844187 C100.872002,112.118744 98.3067662,111.114872 97.1905023,109.943689 L97.0800254,109.831935 L96.9682713,109.72082 C96.7447631,109.386196 96.633009,109.218246 96.5774512,108.88426 L95.7970883,108.88426 Z M96.633009,73.1893604 C100.760248,75.642842 108.233724,76.5911554 114.313786,76.5911554 C120.281455,76.5911554 127.754931,75.642842 131.993285,73.1893604 L131.993285,74.8062827 L131.993285,76.6473517 C131.993285,76.9813369 131.771054,77.2604028 131.491988,77.6512229 C129.316934,79.8818348 122.344755,81.4431994 114.42554,81.4431994 C111.859666,81.4431994 109.29443,81.2203297 107.007622,80.9412638 C106.505047,80.8295097 106.003112,80.8295097 105.445618,80.7183942 C101.541249,79.993589 98.5851936,78.8779637 97.3584528,77.6512229 C97.0238291,77.3159606 96.8565172,76.9257791 96.8565172,76.6473517 L96.8565172,76.3120894 L96.8565172,75.1964641 L96.8565172,74.6951671 C96.633009,74.0814775 96.633009,73.691296 96.633009,73.1893604 L96.633009,73.1893604 Z M114.202032,63.7630612 C125.077941,63.7630612 131.771054,66.5518051 131.771054,68.6151052 L131.771054,68.7268593 C131.771054,69.0621216 131.547546,69.340549 131.269119,69.6751727 C129.093426,71.9064233 122.121885,73.4677878 114.202032,73.4677878 C106.393932,73.4677878 99.3106374,71.9064233 97.1355832,69.6751727 C96.8003209,69.340549 96.633009,69.0621216 96.633009,68.7268593 L96.633009,68.6151052 C96.633009,66.4962473 103.437876,63.7630612 114.202032,63.7630612 L114.202032,63.7630612 Z M131.882808,82.9496447 L131.882808,84.7900752 C131.882808,85.1246989 131.6593,85.4031263 131.380234,85.7939463 C129.20518,88.0245583 122.233001,89.5859228 114.313786,89.5859228 C111.636796,89.5859228 109.182676,89.3636918 106.84031,89.0846258 C106.338374,88.9728717 105.836439,88.9728717 105.277668,88.8617562 C102.099381,88.359182 99.6452611,87.4115072 98.083258,86.5193901 C97.7486343,86.2958819 97.4702069,86.1285701 97.2466987,85.7939463 C97.1355832,85.6821922 97.0238291,85.458684 96.912075,85.4031263 C96.8003209,85.1802567 96.6892053,85.0129448 96.6892053,84.7900752 L96.6892053,83.0613988 L96.6892053,81.4431994 C98.4178817,82.4477091 100.872002,83.3953839 103.995369,83.8973195 C104.831929,84.1208277 105.61293,84.2319432 106.560605,84.287501 C109.015364,84.6227633 111.691715,84.7900752 114.257589,84.7900752 C120.225897,84.7900752 127.699373,83.8417618 131.938366,81.3876416 C131.882808,81.7784617 131.882808,82.335955 131.882808,82.9496447 L131.882808,82.9496447 Z M96.633009,89.4192495 C98.2512085,90.4231207 100.648494,91.2590414 103.493434,91.8727311 C104.497305,92.0962393 105.557373,92.2635512 106.560605,92.3746667 C108.90361,92.709929 111.469484,92.8772409 114.257589,92.8772409 C120.225897,92.8772409 127.699373,91.9289275 131.938366,89.4748073 L131.938366,90.0878584 L131.938366,91.6505001 L131.938366,92.8772409 C131.938366,93.2118646 131.714858,93.4909306 131.435792,93.881112 C130.209051,95.1078528 127.420307,96.2234781 123.627692,96.8371678 C123.125757,96.9489219 122.623821,97.0600374 122.01077,97.1717915 C119.667765,97.5064152 116.990776,97.6730885 114.313786,97.6730885 C111.636796,97.6730885 109.070922,97.4508575 106.616802,97.1717915 C106.114866,97.0600374 105.61293,96.9489219 105.055437,96.8371678 C101.764758,96.2234781 99.0871292,95.2751647 97.7486343,94.2712935 C97.5257647,94.1595394 97.4140105,93.9366698 97.3584528,93.881112 C97.1355832,93.6576038 96.9682713,93.4909306 96.9682713,93.2674223 C96.9682713,93.1556682 96.8565172,93.0439141 96.8565172,92.8772409 L96.8565172,91.1485645 C96.633009,90.4231207 96.5218935,89.809431 96.633009,89.4192495 L96.633009,89.4192495 Z M96.633009,97.3946611 C98.1950121,98.3429745 100.314509,99.1239761 102.991498,99.7370272 C104.107124,99.9598968 105.333864,100.127847 106.560605,100.350717 C108.90361,100.685341 111.469484,100.852652 114.145835,100.852652 C116.823464,100.852652 119.276945,100.629144 121.731065,100.350717 C123.070199,100.127847 124.29694,99.9598968 125.412565,99.7370272 C127.977801,99.1239761 130.264609,98.3985323 131.771054,97.3946611 L131.771054,99.012222 L131.771054,100.852652 L131.771054,100.964407 C131.771054,101.29903 131.547546,101.578096 131.269119,101.912081 L131.157365,102.023835 C129.929985,103.139461 127.252995,104.19889 123.739446,104.924333 C123.125757,105.036088 122.400951,105.147203 121.787262,105.258319 C119.444896,105.593581 116.879021,105.760254 114.202032,105.760254 C111.525042,105.760254 108.959168,105.538023 106.616802,105.258319 C105.891358,105.147203 105.277668,105.036088 104.665256,104.924333 C101.151068,104.19889 98.5296358,103.306773 97.2466987,102.023835 L97.1355832,101.912081 C96.8003209,101.578096 96.633009,101.29903 96.633009,101.075522 L96.633009,100.852652 L96.633009,99.1239761 C96.633009,98.4547286 96.5218935,97.8965967 96.633009,97.3946611 L96.633009,97.3946611 Z M131.882808,115.186553 L131.882808,116.525048 L131.882808,117.138738 C131.882808,117.361608 131.771054,117.473362 131.6593,117.640674 C131.547546,117.807985 131.435792,117.974659 131.324676,118.030855 C130.320167,119.14648 127.811127,120.094794 124.631563,120.819599 C123.683889,121.042469 122.679379,121.210419 121.675508,121.322173 C119.333142,121.656158 116.823464,121.82347 114.257589,121.82347 C111.691715,121.82347 109.126479,121.6006 106.84031,121.322173 C105.836439,121.210419 104.776371,120.986911 103.884254,120.819599 C100.70469,120.094794 98.362324,119.202038 97.1905023,118.030855 C96.9682713,117.807985 96.8565172,117.696231 96.8003209,117.528919 C96.6892053,117.30605 96.5774512,117.194296 96.5774512,117.026984 L96.5774512,116.91523 L96.5774512,116.413294 L96.5774512,115.074799 L96.5774512,113.513435 C97.9159461,114.349994 99.6452611,115.074799 101.819677,115.576735 C102.656875,115.800243 103.382318,115.967555 104.162681,116.079309 C104.497305,116.190425 104.776371,116.190425 105.110995,116.30154 C105.61293,116.413294 106.114866,116.525048 106.672359,116.525048 C109.015364,116.859672 111.5806,117.026984 114.145835,117.026984 C116.71171,117.026984 119.276945,116.803476 121.61995,116.525048 C122.121885,116.413294 122.623821,116.413294 123.181953,116.30154 C123.515938,116.30154 123.795643,116.190425 124.129628,116.079309 C124.966826,115.967555 125.747189,115.744047 126.471994,115.576735 C128.647048,115.074799 130.376363,114.349994 131.714858,113.513435 C131.882808,114.01537 131.882808,114.572864 131.882808,115.186553 L131.882808,115.186553 Z M96.633009,124.890641 L96.633009,123.942967 L96.633009,123.217523 L96.633009,121.488846 C97.8603884,122.213652 99.4223915,122.827341 101.262183,123.329277 C102.099381,123.552785 102.880383,123.719458 103.716304,123.942967 C104.218239,124.054721 104.665256,124.166475 105.166553,124.27759 C105.668488,124.388706 106.170424,124.50046 106.728556,124.50046 C111.5806,125.11415 116.990776,125.11415 121.731065,124.50046 C122.233001,124.388706 122.734937,124.388706 123.293068,124.27759 C123.795643,124.166475 124.29694,124.054721 124.743317,123.942967 C125.579877,123.719458 126.36024,123.608343 127.197438,123.329277 C129.037868,122.827341 130.599233,122.213652 131.826612,121.488846 L131.826612,123.050849 L131.826612,123.998524 L131.826612,124.946838 C131.826612,125.058592 131.826612,125.170346 131.714858,125.281461 C131.603104,125.504331 131.49135,125.783397 131.212922,126.006905 C130.209051,127.010776 128.033358,127.958451 125.077303,128.683895 C124.464252,128.795649 123.850562,129.01788 123.014003,129.074076 C117.660023,130.02239 110.799598,130.02239 105.333864,129.074076 C104.720175,128.962322 104.107124,128.851207 103.270564,128.683895 C100.314509,127.958451 98.1394543,127.066334 97.1355832,126.006905 C96.912075,125.783397 96.7447631,125.504331 96.633009,125.281461 L96.633009,124.890641 Z M93.3423295,131.193573 C91.6136532,131.416443 89.6614686,131.528197 87.7099226,131.528197 C80.235808,131.528197 73.6544491,130.077948 71.591149,127.958451 C71.2565252,127.624466 71.0885748,127.344761 71.0885748,126.95458 L71.0885748,125.337658 L71.0885748,123.887409 C75.1046981,126.229775 82.0762385,127.066334 87.7099226,127.066334 C89.7732227,127.066334 91.8371614,126.95458 93.6769532,126.73171 C93.3423295,128.014648 93.3423295,129.4087 93.3423295,131.193573 L93.3423295,131.193573 Z M87.8210381,119.36935 C89.8849768,119.36935 91.8371614,119.257596 93.6769532,119.035365 C93.3423295,120.261467 93.3423295,121.6006 93.3423295,123.161965 L93.3423295,123.273719 L93.3423295,123.608343 C91.6136532,123.831212 89.6614686,123.942967 87.7099226,123.942967 C80.2920043,123.942967 73.7662032,122.381602 71.7022645,120.373221 C71.3676408,120.039236 71.2003289,119.759531 71.2003289,119.36935 L71.2003289,117.752428 L71.2003289,116.30154 C75.1046981,118.532791 82.1879926,119.36935 87.8210381,119.36935 L87.8210381,119.36935 Z M87.8210381,111.78412 C89.7732227,111.78412 91.7254073,111.672366 93.5658377,111.450135 C93.3423295,112.453367 93.3423295,113.680747 93.3423295,115.130357 L93.3423295,115.242111 L93.3423295,115.967555 C91.6136532,116.079309 89.6614686,116.190425 87.8210381,116.190425 C80.3475621,116.190425 73.7662032,114.740176 71.7022645,112.621318 C71.3676408,112.286055 71.2003289,112.007628 71.2003289,111.616808 L71.2003289,109.999247 L71.2003289,108.549637 C75.1046981,110.836445 82.1879926,111.78412 87.8210381,111.78412 L87.8210381,111.78412 Z M87.8210381,104.087136 C89.7732227,104.087136 91.7254073,103.975381 93.5658377,103.75315 C93.4540836,104.757022 93.4540836,105.928205 93.4540836,107.154945 L93.4540836,108.270571 C91.6136532,108.494079 89.7732227,108.605194 87.8210381,108.605194 C80.3475621,108.605194 73.7662032,107.154945 71.7022645,105.036088 C71.3676408,104.700825 71.2003289,104.422398 71.2003289,104.087136 L71.2003289,102.470213 L71.2003289,101.019964 C75.1046981,103.251215 82.1879926,104.087136 87.8210381,104.087136 L87.8210381,104.087136 Z M87.8210381,96.5019055 C89.6614686,96.5019055 91.6136532,96.39079 93.4540836,96.1679203 C93.3423295,97.1155952 93.3423295,98.0083508 93.4540836,99.1239761 L93.4540836,100.685341 C91.6136532,100.908849 89.7732227,101.019964 87.8210381,101.019964 C80.3475621,101.019964 73.7662032,99.5697153 71.7022645,97.4508575 C71.3676408,97.1155952 71.2003289,96.8371678 71.2003289,96.4463477 L71.2003289,94.8287869 L71.2003289,93.3791765 C75.1046981,95.5542306 82.1879926,96.5019055 87.8210381,96.5019055 L87.8210381,96.5019055 Z M87.8210381,88.8055598 C89.7732227,88.8055598 91.6136532,88.6944443 93.4540836,88.4709361 L93.4540836,90.9250563 L93.4540836,91.0368104 L93.4540836,92.6537327 L93.4540836,92.9883564 C91.7254073,93.2118646 89.7732227,93.3236187 87.8210381,93.3236187 C80.3475621,93.3236187 73.7662032,91.8727311 71.7022645,89.7538733 C71.3676408,89.4192495 71.2003289,89.1401836 71.2003289,88.8055598 L71.2003289,87.187999 L71.2003289,85.6266345 C75.1046981,87.9690005 82.1879926,88.8055598 87.8210381,88.8055598 L87.8210381,88.8055598 Z M87.8210381,76.5911554 C89.7732227,76.5911554 91.6136532,76.7022709 93.4540836,76.9257791 C93.4540836,77.4277147 93.5658377,77.9296503 93.8442651,78.4871436 C93.4540836,79.8256385 93.4540836,81.2765261 93.4540836,83.0052025 L93.4540836,83.116318 L93.4540836,84.7345174 C93.4540836,84.9567484 93.4540836,85.1246989 93.5658377,85.3475685 C91.7254073,85.5704381 89.8849768,85.6821922 87.9321536,85.6821922 C79.2319368,85.6821922 73.4315794,83.8417618 71.8140186,82.1124468 C71.591149,81.8902158 71.312083,81.6105112 71.312083,81.164772 L71.312083,80.9974601 C71.312083,79.1563911 77.5588182,76.5911554 87.8210381,76.5911554 L87.8210381,76.5911554 Z M159.99184,113.345484 C160.215348,112.844187 160.327102,112.230498 160.327102,111.728562 L160.327102,110.111001 C160.327102,108.382325 160.438217,107.043191 159.936282,105.816451 C160.15979,105.314515 160.271544,104.700825 160.271544,104.19889 L160.271544,102.581967 C160.271544,100.852652 160.38266,99.5141576 159.880724,98.2867782 C160.103594,97.7848426 160.215348,97.1717915 160.215348,96.6698559 C160.215348,91.3152378 150.231555,88.9728717 140.415713,88.9728717 C138.575283,88.9728717 136.734214,89.0846258 134.893783,89.3074954 C134.893783,88.359182 134.782668,87.5788191 134.503602,86.8533753 C134.72711,86.3514397 134.893783,85.7383886 134.893783,85.1246989 L134.893783,83.507138 L134.893783,83.3953839 C134.893783,81.5549535 135.005537,80.1053431 134.503602,78.8779637 C134.72711,78.3760281 134.893783,77.7623384 134.893783,77.1492873 L134.893783,75.4199723 C134.893783,73.5795419 135.005537,72.1292929 134.503602,70.9019135 C134.72711,70.3999779 134.893783,69.7862882 134.893783,69.1732371 C134.893783,63.6519457 124.408694,61.0860714 114.03472,61.0860714 C103.660746,61.0860714 93.1750177,63.5401916 93.1750177,69.1732371 C93.1750177,69.7862882 93.2867718,70.3999779 93.5658377,70.9019135 C93.231214,71.8502269 93.1750177,72.9658522 93.1750177,74.1932316 C82.1879926,72.8540981 68.1331576,75.0291523 68.1331576,81.3876416 C68.1331576,82.0006927 68.2442731,82.5026283 68.4677814,83.0052025 C68.0775999,84.3436973 68.1331576,85.7939463 68.1331576,87.4115072 L68.1331576,89.0284295 C68.1331576,89.6421192 68.2442731,90.1440547 68.4677814,90.6459903 C68.0775999,91.8727311 68.1331576,93.3236187 68.1331576,95.0522951 L68.1331576,96.6698559 C68.1331576,97.282907 68.2442731,97.7848426 68.4677814,98.2867782 C68.0775999,99.4024035 68.1331576,100.852652 68.1331576,102.581967 L68.1331576,104.19889 C68.1331576,104.812579 68.2442731,105.314515 68.4677814,105.816451 C68.0775999,107.043191 68.1331576,108.382325 68.1331576,110.111001 L68.1331576,111.728562 C68.1331576,112.342252 68.2442731,112.843549 68.4677814,113.345484 C68.0775999,114.572864 68.1331576,116.023113 68.1331576,117.752428 L68.1331576,119.36935 C68.1331576,119.98304 68.2442731,120.484975 68.4677814,120.986911 C68.0775999,122.213652 68.1331576,123.664539 68.1331576,125.281461 L68.1331576,126.899022 C68.1331576,127.624466 68.3560272,128.237517 68.6350932,128.962322 C68.7462087,129.074076 69.3598984,130.077948 69.9735881,130.524325 C73.5433335,133.480381 81.5743029,134.651564 87.8210381,134.651564 C89.7732227,134.651564 91.8371614,134.53981 93.6769532,134.316941 C94.7932171,137.60762 100.760248,141.065611 114.202032,141.065611 C127.754931,141.065611 133.611485,137.552062 134.72711,134.316941 C136.56754,134.53981 138.519086,134.651564 140.583025,134.651564 C146.82976,134.651564 154.86073,133.647054 158.430475,130.63608 C159.155919,130.02239 159.769609,129.074076 159.880724,129.01788 C160.215348,128.404829 160.38266,127.680024 160.38266,127.066334 L160.38266,125.448773 C160.38266,123.719458 160.493775,122.381602 159.99184,121.154223 C160.215348,120.652287 160.327102,120.038597 160.327102,119.5373 L160.327102,117.919101 L159.489904,117.919101 L160.327102,117.807985 C160.38266,115.911359 160.493775,114.572864 159.99184,113.345484 L159.99184,113.345484 Z" id="Fill-51" fill="#494977"></path>
                <path d="M131.378702,171.098665 C130.690935,170.338737 129.367766,170.317025 128.627635,171.025865 L115.352524,183.539771 L115.352524,163.546003 L115.352524,153.424913 C115.352524,152.352074 114.477011,151.475921 113.404171,151.475921 C112.330693,151.475921 111.455818,152.352074 111.455818,153.424913 L111.455818,163.546003 L111.455818,183.530192 L98.1807076,171.015648 C97.4405761,170.317025 96.1378425,170.359172 95.4296408,171.088448 C94.6792918,171.859232 94.7418741,173.130674 95.5024406,173.839514 L112.059929,189.438472 C112.51844,189.896983 112.94566,189.979362 113.404171,189.990218 C113.852465,189.990218 114.456576,189.719454 114.748413,189.438472 L131.305902,173.849732 C132.056251,173.120457 132.149486,171.942888 131.378702,171.098665" id="Fill-53" fill="#66F246"></path>
                <path d="M132.586029,196.362437 L120.988507,196.362437 L105.824433,196.362437 L94.2269112,196.362437 C93.1534332,196.362437 92.2785582,197.23795 92.2785582,198.311429 C92.2785582,199.384268 93.1534332,200.259782 94.2269112,200.259782 L105.824433,200.259782 L120.988507,200.259782 L132.586029,200.259782 C133.659507,200.259782 134.534382,199.384268 134.534382,198.311429 C134.534382,197.23795 133.659507,196.362437 132.586029,196.362437" id="Fill-55" fill="#66F246"></path>
            </g>
        </g>
    </g>
</svg>